<svg width="550" height="448" viewBox="0 0 550 448" fill="none" xmlns="http://www.w3.org/2000/svg">
    <path d="M-142.638 964.735C-139.546 964.735 -138.005 964.735 -134.933 964.735C-136.575 774.632 -198.567 594.362 -218.731 406.574C-236.613 240.179 -204.954 93.3479 -117.476 -49.4108C16.553 -268.172 -126.387 -521.979 -134.943 -753.18C-138.015 -753.18 -139.556 -753.18 -142.648 -753.18C-134.396 -520.503 5.61452 -264.413 -125.819 -43.6507C-210.843 99.1888 -242.007 244.383 -224.54 409.767C-204.812 596.424 -144.3 775.875 -142.638 964.735Z" fill="url(#paint0_radial_54_2205)" />
    <path d="M-125.952 964.735C-122.769 964.735 -121.157 964.735 -117.994 964.735C-119.636 771.894 -184.862 589.754 -206.039 399.44C-224.794 230.943 -191.998 80.1605 -99.1782 -62.2646C40.5485 -276.691 -108.799 -525.192 -117.994 -753.179C-121.157 -753.179 -122.769 -753.179 -125.952 -753.179C-117.061 -523.696 29.2753 -272.659 -107.775 -56.2014C-198.081 86.4056 -230.339 235.288 -212 402.805C-191.309 591.917 -127.594 773.187 -125.952 964.735Z" fill="url(#paint1_radial_54_2205)" />
    <path d="M-108.718 964.735C-105.433 964.735 -103.811 964.735 -100.516 964.735C-102.179 769.024 -170.689 584.934 -192.9 391.962C-212.537 221.363 -178.626 66.1848 -80.3018 -75.725C67.028 -288.332 -95.3256 -526.223 -100.516 -753.179C-103.801 -753.179 -105.423 -753.179 -108.717 -753.179C-99.1577 -526.89 53.6464 -281.46 -89.1722 -69.389C-184.902 72.7936 -218.285 225.86 -199.084 395.489C-177.369 587.208 -110.35 770.378 -108.718 964.735Z" fill="url(#paint2_radial_54_2205)" />
    <path d="M-90.977 964.735C-87.5911 964.735 -85.8879 964.735 -82.5222 964.735C-84.1442 766.022 -156.121 579.912 -179.387 384.181C-199.916 211.51 -164.85 51.4208 -60.8277 -89.7513C92.6256 -297.993 -76.8247 -529.295 -82.5322 -753.169C-85.8979 -753.169 -87.6011 -753.169 -90.987 -753.169C-85.5837 -527.85 80.643 -293.435 -69.9819 -83.1322C-171.358 58.4037 -205.867 216.159 -185.754 387.859C-162.974 582.276 -92.6295 767.437 -90.977 964.735Z" fill="url(#paint3_radial_54_2205)" />
    <path d="M-72.6687 964.735C-69.1813 964.735 -67.4377 964.735 -63.9605 964.735C-65.6231 762.89 -141.077 574.687 -165.458 376.076C-186.879 201.385 -150.607 35.8484 -40.7351 -104.344C119.074 -308.29 -57.8981 -532.225 -63.9603 -753.179C-67.4477 -753.179 -69.1913 -753.179 -72.6685 -753.179C-66.6874 -530.922 106.625 -303.369 -50.1733 -97.492C-157.287 43.195 -193.012 206.134 -172.007 379.886C-148.143 577.153 -74.3312 764.365 -72.6687 964.735Z" fill="url(#paint4_radial_54_2205)" />
    <path d="M-53.8023 964.735C-50.2136 964.735 -48.4193 964.735 -44.8305 964.735C-46.4728 759.656 -125.536 569.281 -151.052 367.689C-173.426 191.037 -135.866 19.508 -20.0136 -119.441C146.264 -318.901 -38.1092 -535.166 -44.8202 -753.179C-48.3988 -753.179 -50.2033 -753.179 -53.792 -753.179C-47.4155 -533.802 133.521 -313.889 -29.7355 -112.357C-142.79 27.2286 -179.742 195.887 -157.804 371.63C-132.835 571.817 -55.4446 761.172 -53.8023 964.735Z" fill="url(#paint5_radial_54_2205)" />
    <path d="M-34.3586 964.735C-30.6583 964.735 -28.7931 964.735 -25.0929 964.735C-26.7351 756.291 -109.56 563.723 -136.232 359.038C-159.498 180.456 -120.67 2.47009 1.33613 -135.024C174.325 -329.987 -17.8342 -537.976 -25.0927 -753.19C-28.793 -753.19 -30.6582 -753.19 -34.3584 -753.19C-27.3837 -536.672 161.166 -324.813 -8.70016 -127.718C-127.817 10.5038 -166.057 185.408 -143.206 363.091C-117.041 566.33 -36.0211 757.867 -34.3586 964.735Z" fill="url(#paint6_radial_54_2205)" />
    <path d="M-14.2959 964.735C-10.474 964.735 -8.57821 964.735 -4.75633 964.735C-6.41888 752.845 -93.0651 558.024 -120.944 350.186C-145.162 169.745 -104.906 -15.2241 23.335 -150.98C98.3534 -230.357 116.459 -313.616 90.142 -419.328C62.3446 -531.043 -0.488259 -636.28 -4.75618 -753.179C-8.57806 -753.179 -10.4738 -753.179 -14.2957 -753.179C-10.1596 -635.27 51.3048 -528.517 78.4837 -415.539C103.949 -309.614 87.1108 -224.244 13.0049 -143.482C-112.306 -6.89736 -151.894 174.757 -128.131 354.34C-100.8 560.691 -15.9584 754.462 -14.2959 964.735Z" fill="url(#paint7_radial_54_2205)" />
    <path d="M6.37469 964.735C10.3182 964.735 12.2747 964.735 16.2183 964.735C14.5963 749.308 -76.0542 552.203 -105.2 341.142C-130.361 158.861 -88.5436 -33.505 46.0331 -167.27C122.917 -243.687 143.983 -322.286 115.77 -427.625C86.6039 -536.551 20.8918 -638.453 16.2184 -753.19C12.2749 -753.19 10.3184 -753.19 6.37484 -753.19C10.8861 -637.433 75.2194 -533.994 103.757 -423.734C131.037 -318.244 111.421 -237.452 35.3886 -159.63C-96.2178 -24.9256 -137.306 163.934 -112.58 345.376C-84.0325 554.921 4.73242 750.965 6.37469 964.735Z" fill="url(#paint8_radial_54_2205)" />
    <path d="M27.6843 964.735C31.7393 964.735 33.7669 964.735 37.8422 964.735C36.1796 745.701 -58.5261 546.322 -88.9592 331.976C-115.114 147.907 -71.5934 -52.2402 69.3804 -183.762C147.988 -257.106 172.439 -330.936 142.189 -435.982C111.614 -542.068 42.8098 -640.636 37.8423 -753.179C33.767 -753.179 31.7395 -753.179 27.6844 -753.179C32.5403 -639.615 99.8744 -539.501 129.791 -432.081C159.078 -326.924 136.248 -250.831 58.4116 -176.051C-79.5716 -43.4788 -122.261 153.02 -96.5827 336.251C-66.768 549.07 26.0319 747.388 27.6843 964.735Z" fill="url(#paint9_radial_54_2205)" />
    <path d="M49.6623 964.735C53.839 964.735 55.9374 964.735 60.1141 964.735C58.4312 742.042 -40.4713 540.41 -72.273 322.75C-99.4012 136.912 -54.0354 -71.3598 93.4365 -200.405C173.585 -270.547 201.879 -339.577 169.388 -444.42C137.393 -547.606 65.4567 -642.819 60.1142 -753.19C55.9375 -753.19 53.8391 -753.19 49.6624 -753.19C54.8731 -641.798 125.299 -545.059 156.624 -440.499C188.051 -335.575 161.612 -264.302 82.1533 -192.665C-62.2874 -62.4367 -106.781 142.015 -80.1094 327.035C-48.9463 543.158 47.9794 743.75 49.6623 964.735Z" fill="url(#paint10_radial_54_2205)" />
    <path d="M72.2895 964.735C76.6082 964.735 78.7675 964.735 83.076 964.735C81.3931 738.354 -21.8788 534.518 -55.0694 313.544C-83.2419 125.918 -35.7673 -90.6406 118.162 -217.018C156.807 -248.739 193.718 -275.246 207.738 -325.985C219.397 -368.165 210.942 -412.194 197.398 -452.817C163.954 -553.103 88.8546 -644.92 83.0761 -753.179C78.7575 -753.179 76.5982 -753.179 72.2897 -753.179C77.8552 -643.95 151.485 -550.556 184.239 -448.917C197.54 -407.606 205.782 -363.041 194.357 -320.275C180.772 -269.415 144.855 -241.706 106.565 -209.298C-44.3741 -81.6367 -90.8248 131.011 -63.1389 317.809C-30.6276 537.257 70.6067 740.072 72.2895 964.735Z" fill="url(#paint11_radial_54_2205)" />
    <path d="M95.6567 964.735C100.097 964.735 102.327 964.735 106.788 964.735C105.044 734.655 -2.70868 528.708 -37.359 304.419C-66.6263 114.994 -16.7898 -109.952 143.638 -233.47C182.962 -263.746 222.083 -287.665 237.117 -338.152C249.313 -379.068 240.321 -421.955 226.27 -461.134C191.386 -558.499 112.911 -647.002 106.798 -753.179C102.338 -753.179 100.107 -753.179 95.667 -753.179C101.608 -646.042 178.512 -555.983 212.726 -457.284C226.544 -417.438 235.282 -374.015 223.34 -332.503C208.782 -281.895 170.716 -256.773 131.706 -225.82C-25.721 -100.968 -74.412 120.077 -45.6617 308.663C-11.721 531.396 93.9536 736.373 95.6567 964.735Z" fill="url(#paint12_radial_54_2205)" />
    <path d="M119.734 964.735C124.306 964.735 126.607 964.735 131.199 964.735C129.395 730.987 16.9686 523.049 -19.1619 295.516C-34.0135 202.021 -33.2634 106.131 -4.90843 15.1223C24.8556 -80.3836 87.1817 -189.906 169.803 -249.548C209.756 -278.419 251.198 -299.761 267.338 -350.025C280.05 -389.719 270.511 -431.465 255.973 -469.218C219.579 -563.683 137.748 -648.983 131.189 -753.179C126.597 -753.179 124.296 -753.179 119.724 -753.179C126.06 -648.083 206.329 -561.278 242.014 -465.489C256.328 -427.059 265.614 -384.788 253.145 -344.538C237.543 -294.173 197.195 -271.628 157.527 -242.12C-6.35813 -120.189 -57.5835 109.234 -27.6978 299.639C7.74329 525.646 117.99 732.705 119.734 964.735Z" fill="url(#paint13_radial_54_2205)" />
    <path d="M144.541 964.734C149.275 964.734 151.627 964.734 156.361 964.734C154.516 727.4 37.3048 517.612 -0.437482 286.936C-15.9379 192.199 -15.0863 94.9646 14.4345 2.89448C45.3846 -93.5816 111.036 -207.045 196.688 -265.08C237.279 -292.597 281.115 -311.423 298.42 -361.455C311.73 -399.956 301.572 -440.62 286.538 -477C248.705 -568.615 163.326 -650.843 156.351 -753.18C151.617 -753.18 149.265 -753.18 144.531 -753.18C151.282 -649.994 235.019 -566.352 272.183 -473.422C286.994 -436.417 296.858 -395.247 283.821 -356.2C267.074 -306.047 224.364 -286.079 184.047 -257.925C99.8134 -199.132 35.7234 -87.4981 5.35108 8.52319C-23.6324 100.118 -24.4231 196.726 -9.23699 290.888C27.7552 520.108 142.695 729.057 144.541 964.734Z" fill="url(#paint14_radial_54_2205)" />
    <path d="M170.117 964.734C174.984 964.734 177.447 964.734 182.313 964.734C180.336 723.893 58.1881 512.509 18.7832 278.812C2.6238 182.881 3.55651 84.3639 34.2836 -8.7167C66.4605 -106.183 135.7 -223.436 224.303 -279.824C265.513 -306.037 311.841 -322.418 330.373 -372.248C344.272 -409.648 333.526 -449.261 318.015 -484.316C278.712 -573.173 189.633 -652.571 182.303 -753.17C177.427 -753.17 174.974 -753.17 170.108 -753.17C177.275 -651.803 264.59 -571.091 303.245 -480.961C318.512 -445.32 328.984 -405.211 315.359 -367.316C297.416 -317.386 252.253 -299.873 211.327 -273.073C124.093 -215.917 56.5661 -100.393 24.9671 -3.40126C-5.2126 89.2145 -6.09447 187.146 9.74048 282.54C48.3952 514.833 168.242 725.51 170.117 964.734Z" fill="url(#paint15_radial_54_2205)" />
    <path d="M196.496 964.734C201.524 964.734 204.038 964.734 209.066 964.734C206.988 720.558 79.7104 507.82 38.5719 271.303C21.6827 174.282 22.7167 74.5315 54.6705 -19.4485C88.1551 -117.895 161.136 -238.705 252.648 -293.436C294.486 -318.467 343.39 -332.513 363.25 -382.171C377.787 -418.55 366.362 -457.213 350.395 -491.016C309.642 -577.306 216.822 -654.087 209.067 -753.16C204.038 -753.16 201.524 -753.16 196.496 -753.16C204.119 -653.389 295.105 -575.467 335.199 -487.974C350.963 -453.596 362.064 -414.498 347.83 -377.664C328.609 -327.925 280.892 -312.788 239.348 -287.231C149.173 -231.732 77.9971 -112.539 45.1107 -14.5677C13.7246 79.0081 12.7615 178.203 29.2858 274.729C69.593 509.942 194.458 722.084 196.496 964.734Z" fill="url(#paint16_radial_54_2205)" />
    <path d="M223.685 964.734C228.875 964.734 231.47 964.734 236.651 964.734C234.41 717.405 101.81 503.697 58.8471 264.604C41.2279 166.571 42.3532 65.7499 75.5539 -29.0487C110.407 -128.566 187.362 -252.529 281.713 -305.683C324.22 -329.623 375.759 -341.487 396.987 -391.003C412.194 -426.473 400.12 -464.307 383.687 -496.988C341.494 -580.934 244.893 -655.36 236.651 -753.18C231.46 -753.18 228.875 -753.18 223.685 -753.18C231.724 -654.814 326.531 -579.337 368.065 -494.331C384.285 -461.134 396.045 -422.926 381.153 -387.042C360.563 -337.485 310.27 -324.611 268.098 -300.176C175.055 -246.314 99.9755 -123.746 65.7611 -24.7236C33.1483 69.7011 32.0635 170.027 49.3279 267.615C91.4395 505.546 221.546 718.85 223.685 964.734Z" fill="url(#paint17_radial_54_2205)" />
    <path d="M251.715 964.734C257.058 964.734 259.734 964.734 265.077 964.734C262.664 714.535 124.559 500.251 79.6494 258.904C61.2598 160.023 62.4663 58.2113 96.9341 -37.2239C118.142 -95.9261 150.532 -149.96 189.359 -198.748C221.971 -239.726 263.019 -293.092 311.507 -316.122C355.068 -336.828 409.538 -350.147 431.658 -398.41C447.554 -433.143 434.811 -470.229 417.921 -501.95C374.319 -583.824 273.673 -656.35 265.087 -753.18C259.744 -753.18 257.068 -753.18 251.725 -753.18C260.14 -655.936 358.9 -582.551 401.874 -499.777C418.54 -467.622 430.958 -430.202 415.397 -395.156C393.956 -346.863 340.794 -332.665 297.547 -311.514C249.809 -288.14 209.674 -235.33 177.66 -194.514C139.461 -145.806 107.71 -91.9648 86.9182 -33.6163C53.0585 61.5359 51.8927 162.903 69.9072 261.41C113.854 501.777 249.383 715.829 251.715 964.734Z" fill="url(#paint18_radial_54_2205)" />
    <path d="M280.628 964.734C286.132 964.734 288.879 964.734 294.384 964.734C291.708 711.989 147.926 497.694 100.999 254.468C81.7883 154.889 83.0556 52.2895 118.821 -43.6105C140.962 -103 174.74 -157.377 214.936 -206.307C248.897 -247.618 291.921 -301.975 342.011 -324.378C427.948 -362.809 511.978 -400.856 453.109 -505.719C408.108 -585.906 303.387 -656.946 294.395 -753.18C288.89 -753.18 286.143 -753.18 280.638 -753.18C289.427 -656.724 392.253 -585.037 436.605 -504.123C453.748 -472.857 466.815 -436.083 450.544 -401.705C427.694 -353.431 371.704 -341.052 327.727 -320.842C278.387 -298.145 236.265 -244.223 202.963 -203.073C163.406 -154.184 130.256 -99.948 108.582 -40.872C73.435 54.8361 72.188 157.082 91.0034 256.368C136.937 498.786 278.032 713.131 280.628 964.734Z" fill="url(#paint19_radial_54_2205)" />
    <path d="M310.422 964.734C316.089 964.734 318.938 964.734 324.615 964.734C321.604 709.867 171.932 496.158 122.856 251.547C102.784 151.484 104.142 48.2878 141.175 -47.875C164.278 -107.861 199.486 -162.45 241.061 -211.38C276.441 -253.044 321.513 -308.068 373.205 -329.936C418.469 -349.086 478.717 -359.201 503.686 -407.697C521.092 -441.49 507.072 -477.626 489.23 -508.003C442.86 -586.957 333.84 -657.138 324.615 -753.18C318.928 -753.18 316.079 -753.18 310.422 -753.18C319.516 -657.118 426.549 -586.583 472.269 -507.134C489.889 -476.525 503.615 -440.247 486.584 -406.313C462.294 -357.918 403.405 -347.146 358.576 -327.703C307.635 -305.603 263.516 -250.852 228.825 -209.359C187.879 -160.408 153.35 -105.9 130.693 -46.1773C94.258 49.9046 92.93 152.818 112.597 252.699C160.659 496.734 307.553 710.796 310.422 964.734Z" fill="url(#paint20_radial_54_2205)" />
    <path d="M341.119 964.734C346.978 964.734 349.908 964.734 355.768 964.734C352.382 708.24 196.597 495.875 145.24 250.446C124.255 150.13 125.674 46.6204 164.005 -49.5424C188.102 -110.013 224.79 -164.683 267.733 -213.482C304.705 -255.5 351.784 -310.847 405.087 -332.281C491.004 -366.821 591.994 -400.866 526.323 -508.569C478.565 -586.906 365.267 -656.734 355.768 -753.19C349.908 -753.19 346.979 -753.19 341.119 -753.19C350.527 -656.987 461.817 -587.098 508.927 -508.549C573.017 -401.654 475.959 -366.912 390.165 -331.624C337.611 -310.008 291.465 -254.772 255.243 -212.906C212.929 -164.036 176.95 -109.386 153.31 -49.128C115.567 47.0752 114.188 150.473 134.737 250.698C185.01 495.835 337.946 708.937 341.119 964.734Z" fill="url(#paint21_radial_54_2205)" />
    <path d="M372.799 964.734C378.841 964.734 381.852 964.734 387.884 964.734C384.041 707.219 221.9 497.058 168.12 251.527C146.162 151.272 147.642 47.7118 187.27 -48.1276C212.412 -108.942 250.63 -163.511 294.942 -212.007C333.627 -254.348 382.734 -309.665 437.639 -330.785C524.245 -364.062 633.224 -397.157 564.4 -507.033C515.273 -585.431 397.464 -655.693 387.884 -753.17C381.842 -753.17 378.831 -753.17 372.799 -753.17C382.359 -656.239 498.049 -586.29 546.547 -508.013C613.932 -399.219 508.592 -365.79 422.402 -331.978C368.247 -310.736 320.073 -255.338 282.219 -213.159C238.536 -164.481 201.037 -109.872 176.393 -49.1786C137.363 46.8427 135.903 150.433 157.405 250.759C210.039 496.3 369.19 707.623 372.799 964.734Z" fill="url(#paint22_radial_54_2205)" />
    <path d="M405.442 964.734C411.656 964.734 414.769 964.734 420.983 964.734C416.583 706.906 247.893 499.978 191.498 255.175C168.506 155.314 170.037 52.0874 210.962 -43.1053C237.198 -104.111 276.978 -158.347 322.638 -206.348C363.209 -248.982 414.292 -303.784 470.82 -324.752C558.895 -357.372 675.174 -390.336 603.44 -503.031C552.914 -582.419 430.563 -653.864 420.983 -753.18C414.769 -753.18 411.657 -753.18 405.442 -753.18C415.022 -654.834 535.275 -584.036 585.132 -505.224C655.537 -393.944 542.564 -361.051 455.279 -328.168C399.502 -307.169 349.331 -252.064 309.672 -209.571C264.631 -161.318 225.601 -106.88 199.882 -45.955C159.544 49.5913 158.044 153.03 180.559 253.114C235.698 498.391 401.306 706.946 405.442 964.734Z" fill="url(#paint23_radial_54_2205)" />
    <path d="M439.089 964.735C445.506 964.735 448.709 964.735 455.127 964.735C450.038 707.421 274.535 504.95 215.392 261.825C191.295 162.792 192.857 60.3032 235.07 -33.8284C262.411 -94.7941 303.813 -148.504 350.821 -195.767C393.429 -238.614 446.459 -292.435 504.608 -313.384C595.178 -345.983 717.792 -379.857 643.483 -496.149C591.467 -577.548 464.585 -651.085 455.127 -753.19C448.71 -753.19 445.506 -753.19 439.089 -753.19C448.628 -652.51 573.392 -580.054 624.699 -499.747C697.862 -385.253 578.065 -351.936 488.794 -319.386C431.415 -298.468 379.277 -244.131 337.642 -201.355C291.252 -153.729 250.621 -99.7255 223.797 -38.7193C182.192 55.958 180.631 158.851 204.211 258.328C262.036 502.353 434.334 707.068 439.089 964.735Z" fill="url(#paint24_radial_54_2205)" />
    <path d="M473.78 964.735C480.389 964.735 483.714 964.735 490.334 964.735C484.434 708.937 301.856 512.276 239.722 272.001C214.439 174.252 216.021 72.9957 259.501 -19.5595C288.048 -80.2928 331.093 -133.144 379.388 -179.426C424.278 -222.415 479.183 -274.7 538.934 -295.82C633.285 -329.138 760.927 -365.082 684.48 -485.912C654.32 -533.58 612.016 -573.092 574.568 -614.918C540.313 -653.207 494.988 -699.237 490.324 -753.2C483.715 -753.2 480.379 -753.2 473.77 -753.2C478.524 -700.248 523.19 -655.147 556.928 -617.626C593.819 -576.628 635.495 -537.884 665.259 -491.147C740.754 -372.57 615.28 -337.727 522.876 -304.844C463.855 -283.845 409.821 -230.772 366.017 -187.824C318.319 -141.026 276.045 -87.7606 248.066 -26.8656C205.184 66.4676 203.572 168.37 228.307 266.787C289.042 508.527 468.305 708.098 473.78 964.735Z" fill="url(#paint25_radial_54_2205)" />
    <path d="M509.555 964.735C516.368 964.735 519.774 964.735 526.607 964.735C519.733 711.575 329.856 522.321 264.499 286.25C237.928 190.339 239.57 90.8823 284.277 0.479626C314.051 -59.7383 358.839 -111.407 408.362 -156.406C455.704 -199.415 512.434 -249.548 573.807 -271.021C673.399 -305.875 804.54 -345.326 726.46 -471.745C695.53 -521.837 651.796 -563.501 613.182 -607.551C577.64 -648.053 531.017 -696.609 526.597 -753.169C519.764 -753.169 516.358 -753.169 509.545 -753.169C514.077 -697.903 560.132 -650.62 595.066 -611.239C633.123 -568.332 676.208 -527.728 706.772 -478.859C784.143 -355.169 654.442 -317.567 557.486 -283.522C496.853 -262.25 440.985 -211.026 394.808 -167.997C345.843 -122.361 301.886 -70.0963 272.7 -9.60552C228.541 81.8784 226.919 182.235 252.881 279.085C316.718 517.269 503.179 710.19 509.555 964.735Z" fill="url(#paint26_radial_54_2205)" />
    <path d="M546.426 964.735C553.451 964.735 556.959 964.735 563.984 964.735C555.986 715.546 358.495 535.488 289.671 305.207C261.752 211.773 263.394 114.802 309.297 27.1576C340.399 -32.2115 386.951 -82.324 437.639 -125.706C487.638 -168.493 546.183 -215.887 609.107 -237.937C715.653 -275.236 848.527 -319.982 769.393 -453.131C737.784 -506.325 692.58 -550.89 652.78 -597.84C615.848 -641.414 568.05 -693.285 563.974 -753.19C556.949 -753.19 553.441 -753.19 546.416 -753.19C550.653 -694.942 597.935 -644.719 634.187 -602.69C673.45 -557.196 717.965 -514.056 749.259 -462.418C827.988 -332.543 695.662 -290.505 592.583 -254.469C530.368 -232.722 472.675 -183.954 423.943 -141.036C373.772 -96.8657 328.072 -45.9649 297.598 13.8387C252.232 102.857 250.59 201.061 277.881 295.738C345.073 528.94 538.975 713.515 546.426 964.735Z" fill="url(#paint27_radial_54_2205)" />
    <path d="M584.442 964.735C591.69 964.735 595.309 964.735 602.558 964.735C593.15 721.033 387.843 552.243 315.238 329.581C285.818 239.35 287.521 145.643 334.54 61.5262C396.095 -48.6224 526.384 -153.314 644.781 -195.231C707.391 -217.392 790.986 -234.096 827.319 -297.053C852.541 -340.769 836.291 -388.496 813.288 -429.292C781.132 -486.337 734.55 -534.863 693.411 -585.39C654.817 -632.784 606.137 -689.263 602.548 -753.179C595.299 -753.179 591.68 -753.179 584.432 -753.179C588.233 -691.324 636.509 -636.927 674.342 -591.554C714.933 -542.886 760.806 -496.21 792.709 -441.075C815.326 -401.997 831.698 -356.008 807.013 -313.848C771.207 -252.68 689.032 -237.845 628.115 -216.402C510.346 -174.97 382.217 -65.2963 322.76 44.4986C276.248 130.364 274.565 225.688 303.275 317.516C374.097 543.957 575.703 718.265 584.442 964.735Z" fill="url(#paint28_radial_54_2205)" />
    <path d="M623.624 964.735C631.085 964.735 634.826 964.735 642.318 964.735C631.186 728.299 417.8 573.01 341.139 360.18C256.47 125.129 475.006 -67.1354 680.77 -141.541C747.435 -165.643 834 -187.268 871.397 -254.6C897.887 -302.287 881.93 -354.391 858.107 -399.532C797.991 -513.449 648.258 -617.07 642.318 -753.179C634.836 -753.179 631.085 -753.179 623.624 -753.179C626.929 -686.646 676.056 -627.509 715.531 -577.518C757.309 -524.606 804.672 -473.665 837.102 -414.194C860.53 -371.186 876.649 -321.255 850.767 -275.518C813.856 -210.329 728.66 -191.159 663.972 -168.027C544.915 -125.453 412.214 -27.007 348.063 83.4043C300.487 165.298 298.764 256.924 329.035 345.093C403.739 562.814 613.364 724.671 623.624 964.735Z" fill="url(#paint29_radial_54_2205)" />
    <path d="M664.032 964.735C671.737 964.735 675.579 964.735 683.284 964.735C670.095 737.637 448.375 598.293 367.335 397.863C272.193 162.529 524.407 -3.55246 716.981 -75.2905C788.279 -101.858 877.815 -129.96 916.135 -202.396C943.973 -255.015 928.442 -312.474 903.807 -363.001C839.565 -494.744 697.71 -600.871 683.274 -753.179C675.569 -753.179 671.727 -753.179 664.022 -753.179C669.253 -610.795 821.409 -501.252 882.387 -380.917C906.646 -333.038 922.39 -278.206 895.201 -228.013C857.296 -158.064 769.129 -133.174 700.062 -107.83C500.756 -34.6871 265.057 143.824 355.089 379.36C434.071 585.924 651.837 732.998 664.032 964.735Z" fill="url(#paint30_radial_54_2205)" />
    <path d="M705.677 964.735C713.615 964.735 717.599 964.735 725.537 964.735C709.773 749.48 479.446 628.519 393.773 443.671C286.224 211.52 579.282 72.622 753.284 5.32016C829.934 -24.329 922.339 -60.7589 961.49 -139.055C990.697 -197.475 976.078 -261.937 950.4 -318.699C884.201 -465.065 738.584 -586.572 725.537 -753.169C717.599 -753.169 713.615 -753.169 705.678 -753.169C719.373 -593.676 863.094 -479.354 928.573 -340.365C953.846 -286.715 968.799 -225.557 940.272 -170.038C901.496 -94.5815 810.409 -62.2747 736.344 -34.1514C552.934 35.515 279.908 187.065 381.426 421.247C464.909 613.785 691.221 743.619 705.677 964.735Z" fill="url(#paint31_radial_54_2205)" />
    <path d="M748.621 964.735C756.802 964.735 760.897 964.735 769.088 964.735C750.07 764.042 511.208 663.079 420.932 497.139C299.403 273.739 638.992 160.074 788.613 99.5528C871.326 66.0838 965.768 19.4677 1005.94 -65.2457C1036.9 -130.537 1022.83 -202.911 996.637 -267.151C929.719 -431.323 780.351 -569.666 769.088 -753.179C760.897 -753.179 756.802 -753.179 748.621 -753.179C760.877 -577.578 908.795 -447.29 975.602 -291.546C1001.67 -230.772 1015.97 -162.308 985.912 -100.17C946.355 -18.4174 852.44 23.3279 772.657 54.9072C611.215 118.793 292.935 243.514 407.966 471.825C496.133 646.799 731.275 757.029 748.621 964.735Z" fill="url(#paint32_radial_54_2205)" />
    <path d="M792.891 964.735C801.326 964.735 805.543 964.735 813.988 964.735C788.725 771.237 555.347 676.964 462.801 518.542C338.057 305.005 663.079 199.293 804.702 138.034C888.631 101.736 980.012 49.5918 1020.38 -36.5161C1052.07 -104.111 1041.75 -179.214 1018.06 -247.486C958.672 -418.59 818.712 -565.765 813.988 -753.169C805.543 -753.169 801.326 -753.169 792.892 -753.169C800.535 -567.483 944.865 -424.31 1007.7 -256.328C1032.57 -189.855 1044.57 -115.975 1013.17 -49.4207C972.824 36.0809 880.045 85.6983 796.602 120.703C651.421 181.608 319.414 290.868 442.83 508.922C534.403 670.699 770.437 767.953 792.891 964.735Z" fill="url(#paint33_radial_54_2205)" />
    <path d="M838.521 964.735C847.219 964.735 851.568 964.735 860.276 964.735C843.792 864.297 761.495 793.519 689.812 727.561C626.158 668.96 554.495 611.481 508.481 537.166C381.953 332.805 690.724 233.843 825.717 171.624C910.204 132.678 998.492 75.4715 1038.69 -11.6268C1070.87 -81.3539 1063.74 -158.781 1042.51 -230.509C990.129 -407.475 859.455 -562.582 860.276 -753.19C851.578 -753.19 847.229 -753.19 838.521 -753.19C840.173 -563.987 975.155 -412.447 1030.73 -238.088C1053.1 -167.907 1061.66 -91.5199 1029.67 -22.7326C989.348 63.9311 899.61 118.854 815.306 156.587C677.394 218.301 360.836 320.305 486.725 528.829C532.405 604.518 604.575 663.22 668.533 722.933C740.662 790.296 823.334 862.63 838.521 964.735Z" fill="url(#paint34_radial_54_2205)" />
    <path d="M885.569 964.735C894.541 964.735 899.022 964.735 908.004 964.735C872.857 783.879 652.83 699.398 558.064 552.951C431.222 356.967 722.161 263.755 851.791 200.202C936.237 158.801 1021.28 97.0769 1060.98 9.3825C1093.42 -62.2646 1088.93 -141.642 1070.09 -216.23C1024.18 -398.026 902.57 -560.066 908.004 -753.179C899.022 -753.179 894.541 -753.179 885.57 -753.179C882.204 -561.137 1007.98 -402.22 1056.85 -222.526C1076.8 -149.221 1082.44 -70.6925 1050.1 0.0855392C1010.13 87.5476 923.555 147.24 839.008 187.52C707.066 250.396 407.571 346.185 534.474 545.958C580.732 618.777 651.695 675.024 714.974 732.432C786.049 796.945 867.758 866.106 885.569 964.735Z" fill="url(#paint35_radial_54_2205)" />
    <path d="M934.078 964.735C943.323 964.735 947.946 964.735 957.192 964.735C919.368 791.67 710.543 708.917 614.986 570.736C488.976 388.486 734.205 296.335 864.341 233.56C957.912 188.43 1051.23 116.085 1091.03 17.6588C1120.67 -55.6456 1116.52 -135.741 1099.38 -211.45C1058.02 -394.277 948.017 -560.702 957.192 -753.169C947.946 -753.169 943.323 -753.169 934.078 -753.169C926.525 -561.46 1040.51 -397.531 1084.54 -216.382C1102.7 -141.673 1107.86 -62.2545 1078.23 10.3324C1038 108.931 942.695 178.9 848.831 223.111C716.961 285.219 462.547 379.441 589.531 565.178C685.301 705.239 897.694 789.255 934.078 964.735Z" fill="url(#paint36_radial_54_2205)" />
    <path d="M984.077 964.735C993.606 964.735 998.371 964.735 1007.91 964.735C967.725 796.379 767.071 715.435 672.629 580.518C549.812 405.099 774.461 316.748 901.577 252.124C993.991 205.144 1082.89 128.181 1121.52 30.3815C1150.99 -44.2063 1148.71 -125.423 1133.63 -202.931C1097.53 -388.598 995.847 -559.601 1007.91 -753.179C998.381 -753.179 993.616 -753.179 984.077 -753.179C973.25 -560.035 1078.77 -391.003 1117.26 -206.539C1133.27 -129.819 1136.38 -49.0771 1106.8 24.9347C1067.57 123.088 976.575 197.999 883.552 244.13C755.119 307.825 520.788 397.823 645.267 576.324C740.318 712.656 944.834 794.247 984.077 964.735Z" fill="url(#paint37_radial_54_2205)" />
    <defs>
        <radialGradient id="paint0_radial_54_2205" cx="0" cy="0" r="1" gradientUnits="userSpaceOnUse" gradientTransform="translate(-144.811 105.778) rotate(-90) scale(858.957 84.4037)">
            <stop stop-color="#3772FF" />
            <stop offset="1" stop-color="#3772FF" stop-opacity="0.16" />
        </radialGradient>
        <radialGradient id="paint1_radial_54_2205" cx="0" cy="0" r="1" gradientUnits="userSpaceOnUse" gradientTransform="translate(-128.356 105.778) rotate(-90) scale(858.957 88.5855)">
            <stop stop-color="#3772FF" />
            <stop offset="1" stop-color="#3772FF" stop-opacity="0.16" />
        </radialGradient>
        <radialGradient id="paint2_radial_54_2205" cx="0" cy="0" r="1" gradientUnits="userSpaceOnUse" gradientTransform="translate(-111.472 105.778) rotate(-90) scale(858.957 92.8127)">
            <stop stop-color="#3772FF" />
            <stop offset="1" stop-color="#3772FF" stop-opacity="0.16" />
        </radialGradient>
        <radialGradient id="paint3_radial_54_2205" cx="0" cy="0" r="1" gradientUnits="userSpaceOnUse" gradientTransform="translate(-93.9728 105.783) rotate(-90) scale(858.952 97.2612)">
            <stop stop-color="#3772FF" />
            <stop offset="1" stop-color="#3772FF" stop-opacity="0.16" />
        </radialGradient>
        <radialGradient id="paint4_radial_54_2205" cx="0" cy="0" r="1" gradientUnits="userSpaceOnUse" gradientTransform="translate(-75.9161 105.778) rotate(-90) scale(858.957 101.834)">
            <stop stop-color="#3772FF" />
            <stop offset="1" stop-color="#3772FF" stop-opacity="0.16" />
        </radialGradient>
        <radialGradient id="paint5_radial_54_2205" cx="0" cy="0" r="1" gradientUnits="userSpaceOnUse" gradientTransform="translate(-57.2776 105.778) rotate(-90) scale(858.957 106.549)">
            <stop stop-color="#3772FF" />
            <stop offset="1" stop-color="#3772FF" stop-opacity="0.16" />
        </radialGradient>
        <radialGradient id="paint6_radial_54_2205" cx="0" cy="0" r="1" gradientUnits="userSpaceOnUse" gradientTransform="translate(-38.0809 105.772) rotate(-90) scale(858.962 111.412)">
            <stop stop-color="#3772FF" />
            <stop offset="1" stop-color="#3772FF" stop-opacity="0.16" />
        </radialGradient>
        <radialGradient id="paint7_radial_54_2205" cx="0" cy="0" r="1" gradientUnits="userSpaceOnUse" gradientTransform="translate(-16.573 105.778) rotate(-90) scale(858.957 118.102)">
            <stop stop-color="#3772FF" />
            <stop offset="1" stop-color="#3772FF" stop-opacity="0.16" />
        </radialGradient>
        <radialGradient id="paint8_radial_54_2205" cx="0" cy="0" r="1" gradientUnits="userSpaceOnUse" gradientTransform="translate(4.17177 105.772) rotate(-90) scale(858.962 123.563)">
            <stop stop-color="#3772FF" />
            <stop offset="1" stop-color="#3772FF" stop-opacity="0.16" />
        </radialGradient>
        <radialGradient id="paint9_radial_54_2205" cx="0" cy="0" r="1" gradientUnits="userSpaceOnUse" gradientTransform="translate(25.5499 105.778) rotate(-90) scale(858.957 129.197)">
            <stop stop-color="#3772FF" />
            <stop offset="1" stop-color="#3772FF" stop-opacity="0.16" />
        </radialGradient>
        <radialGradient id="paint10_radial_54_2205" cx="0" cy="0" r="1" gradientUnits="userSpaceOnUse" gradientTransform="translate(47.5808 105.772) rotate(-90) scale(858.962 135.008)">
            <stop stop-color="#3772FF" />
            <stop offset="1" stop-color="#3772FF" stop-opacity="0.16" />
        </radialGradient>
        <radialGradient id="paint11_radial_54_2205" cx="0" cy="0" r="1" gradientUnits="userSpaceOnUse" gradientTransform="translate(71.2714 105.778) rotate(-90) scale(858.957 141.978)">
            <stop stop-color="#3772FF" />
            <stop offset="1" stop-color="#3772FF" stop-opacity="0.16" />
        </radialGradient>
        <radialGradient id="paint12_radial_54_2205" cx="0" cy="0" r="1" gradientUnits="userSpaceOnUse" gradientTransform="translate(94.6856 105.778) rotate(-90) scale(858.957 148.163)">
            <stop stop-color="#3772FF" />
            <stop offset="1" stop-color="#3772FF" stop-opacity="0.16" />
        </radialGradient>
        <radialGradient id="paint13_radial_54_2205" cx="0" cy="0" r="1" gradientUnits="userSpaceOnUse" gradientTransform="translate(118.752 105.778) rotate(-90) scale(858.957 154.521)">
            <stop stop-color="#3772FF" />
            <stop offset="1" stop-color="#3772FF" stop-opacity="0.16" />
        </radialGradient>
        <radialGradient id="paint14_radial_54_2205" cx="0" cy="0" r="1" gradientUnits="userSpaceOnUse" gradientTransform="translate(142.791 105.777) rotate(-90) scale(858.957 161.808)">
            <stop stop-color="#3772FF" />
            <stop offset="1" stop-color="#3772FF" stop-opacity="0.16" />
        </radialGradient>
        <radialGradient id="paint15_radial_54_2205" cx="0" cy="0" r="1" gradientUnits="userSpaceOnUse" gradientTransform="translate(168.179 105.782) rotate(-90) scale(858.952 168.618)">
            <stop stop-color="#3772FF" />
            <stop offset="1" stop-color="#3772FF" stop-opacity="0.16" />
        </radialGradient>
        <radialGradient id="paint16_radial_54_2205" cx="0" cy="0" r="1" gradientUnits="userSpaceOnUse" gradientTransform="translate(194.302 105.787) rotate(-90) scale(858.947 175.63)">
            <stop stop-color="#3772FF" />
            <stop offset="1" stop-color="#3772FF" stop-opacity="0.16" />
        </radialGradient>
        <radialGradient id="paint17_radial_54_2205" cx="0" cy="0" r="1" gradientUnits="userSpaceOnUse" gradientTransform="translate(221.105 105.777) rotate(-90) scale(858.957 182.851)">
            <stop stop-color="#3772FF" />
            <stop offset="1" stop-color="#3772FF" stop-opacity="0.16" />
        </radialGradient>
        <radialGradient id="paint18_radial_54_2205" cx="0" cy="0" r="1" gradientUnits="userSpaceOnUse" gradientTransform="translate(248.638 105.777) rotate(-90) scale(858.957 190.285)">
            <stop stop-color="#3772FF" />
            <stop offset="1" stop-color="#3772FF" stop-opacity="0.16" />
        </radialGradient>
        <radialGradient id="paint19_radial_54_2205" cx="0" cy="0" r="1" gradientUnits="userSpaceOnUse" gradientTransform="translate(275.85 105.777) rotate(-90) scale(858.957 196.918)">
            <stop stop-color="#3772FF" />
            <stop offset="1" stop-color="#3772FF" stop-opacity="0.16" />
        </radialGradient>
        <radialGradient id="paint20_radial_54_2205" cx="0" cy="0" r="1" gradientUnits="userSpaceOnUse" gradientTransform="translate(305.807 105.777) rotate(-90) scale(858.957 205.84)">
            <stop stop-color="#3772FF" />
            <stop offset="1" stop-color="#3772FF" stop-opacity="0.16" />
        </radialGradient>
        <radialGradient id="paint21_radial_54_2205" cx="0" cy="0" r="1" gradientUnits="userSpaceOnUse" gradientTransform="translate(334.462 105.772) rotate(-90) scale(858.962 212.947)">
            <stop stop-color="#3772FF" />
            <stop offset="1" stop-color="#3772FF" stop-opacity="0.16" />
        </radialGradient>
        <radialGradient id="paint22_radial_54_2205" cx="0" cy="0" r="1" gradientUnits="userSpaceOnUse" gradientTransform="translate(364.841 105.782) rotate(-90) scale(858.952 221.298)">
            <stop stop-color="#3772FF" />
            <stop offset="1" stop-color="#3772FF" stop-opacity="0.16" />
        </radialGradient>
        <radialGradient id="paint23_radial_54_2205" cx="0" cy="0" r="1" gradientUnits="userSpaceOnUse" gradientTransform="translate(395.892 105.777) rotate(-90) scale(858.957 229.897)">
            <stop stop-color="#3772FF" />
            <stop offset="1" stop-color="#3772FF" stop-opacity="0.16" />
        </radialGradient>
        <radialGradient id="paint24_radial_54_2205" cx="0" cy="0" r="1" gradientUnits="userSpaceOnUse" gradientTransform="translate(427.644 105.772) rotate(-90) scale(858.962 238.736)">
            <stop stop-color="#3772FF" />
            <stop offset="1" stop-color="#3772FF" stop-opacity="0.16" />
        </radialGradient>
        <radialGradient id="paint25_radial_54_2205" cx="0" cy="0" r="1" gradientUnits="userSpaceOnUse" gradientTransform="translate(460.018 105.767) rotate(-90) scale(858.967 247.828)">
            <stop stop-color="#3772FF" />
            <stop offset="1" stop-color="#3772FF" stop-opacity="0.16" />
        </radialGradient>
        <radialGradient id="paint26_radial_54_2205" cx="0" cy="0" r="1" gradientUnits="userSpaceOnUse" gradientTransform="translate(493.038 105.783) rotate(-90) scale(858.952 257.165)">
            <stop stop-color="#3772FF" />
            <stop offset="1" stop-color="#3772FF" stop-opacity="0.16" />
        </radialGradient>
        <radialGradient id="paint27_radial_54_2205" cx="0" cy="0" r="1" gradientUnits="userSpaceOnUse" gradientTransform="translate(526.653 105.772) rotate(-90) scale(858.962 266.755)">
            <stop stop-color="#3772FF" />
            <stop offset="1" stop-color="#3772FF" stop-opacity="0.16" />
        </radialGradient>
        <radialGradient id="paint28_radial_54_2205" cx="0" cy="0" r="1" gradientUnits="userSpaceOnUse" gradientTransform="translate(562.15 105.778) rotate(-90) scale(858.957 277.904)">
            <stop stop-color="#3772FF" />
            <stop offset="1" stop-color="#3772FF" stop-opacity="0.16" />
        </radialGradient>
        <radialGradient id="paint29_radial_54_2205" cx="0" cy="0" r="1" gradientUnits="userSpaceOnUse" gradientTransform="translate(596.977 105.778) rotate(-90) scale(858.957 288.143)">
            <stop stop-color="#3772FF" />
            <stop offset="1" stop-color="#3772FF" stop-opacity="0.16" />
        </radialGradient>
        <radialGradient id="paint30_radial_54_2205" cx="0" cy="0" r="1" gradientUnits="userSpaceOnUse" gradientTransform="translate(633.151 105.778) rotate(-90) scale(858.957 297.813)">
            <stop stop-color="#3772FF" />
            <stop offset="1" stop-color="#3772FF" stop-opacity="0.16" />
        </radialGradient>
        <radialGradient id="paint31_radial_54_2205" cx="0" cy="0" r="1" gradientUnits="userSpaceOnUse" gradientTransform="translate(668.533 105.783) rotate(-90) scale(858.952 309.075)">
            <stop stop-color="#3772FF" />
            <stop offset="1" stop-color="#3772FF" stop-opacity="0.16" />
        </radialGradient>
        <radialGradient id="paint32_radial_54_2205" cx="0" cy="0" r="1" gradientUnits="userSpaceOnUse" gradientTransform="translate(703.52 105.778) rotate(-90) scale(858.957 320.067)">
            <stop stop-color="#3772FF" />
            <stop offset="1" stop-color="#3772FF" stop-opacity="0.16" />
        </radialGradient>
        <radialGradient id="paint33_radial_54_2205" cx="0" cy="0" r="1" gradientUnits="userSpaceOnUse" gradientTransform="translate(728.058 105.783) rotate(-90) scale(858.952 312.195)">
            <stop stop-color="#3772FF" />
            <stop offset="1" stop-color="#3772FF" stop-opacity="0.16" />
        </radialGradient>
        <radialGradient id="paint34_radial_54_2205" cx="0" cy="0" r="1" gradientUnits="userSpaceOnUse" gradientTransform="translate(759.192 105.772) rotate(-90) scale(858.962 301.457)">
            <stop stop-color="#3772FF" />
            <stop offset="1" stop-color="#3772FF" stop-opacity="0.16" />
        </radialGradient>
        <radialGradient id="paint35_radial_54_2205" cx="0" cy="0" r="1" gradientUnits="userSpaceOnUse" gradientTransform="translate(794.304 105.778) rotate(-90) scale(858.957 290.502)">
            <stop stop-color="#3772FF" />
            <stop offset="1" stop-color="#3772FF" stop-opacity="0.16" />
        </radialGradient>
        <radialGradient id="paint36_radial_54_2205" cx="0" cy="0" r="1" gradientUnits="userSpaceOnUse" gradientTransform="translate(833.892 105.783) rotate(-90) scale(858.952 278.893)">
            <stop stop-color="#3772FF" />
            <stop offset="1" stop-color="#3772FF" stop-opacity="0.16" />
        </radialGradient>
        <radialGradient id="paint37_radial_54_2205" cx="0" cy="0" r="1" gradientUnits="userSpaceOnUse" gradientTransform="translate(877.204 105.778) rotate(-90) scale(858.957 267.285)">
            <stop stop-color="#3772FF" />
            <stop offset="1" stop-color="#3772FF" stop-opacity="0.16" />
        </radialGradient>
    </defs>
</svg>
    