<svg width="16" height="15" viewBox="0 0 16 15" fill="none" xmlns="http://www.w3.org/2000/svg">
    <path fill-rule="evenodd" clip-rule="evenodd" d="M8.496 0.131922C8.34494 0.0456311 8.17397 0.000244141 8 0.000244141C7.82603 0.000244141 7.65506 0.0456311 7.504 0.131922L0.504 4.13192C0.312671 4.24138 0.162867 4.41098 0.0778804 4.61436C-0.0071063 4.81775 -0.0225134 5.04351 0.0340548 5.25655C0.0906229 5.4696 0.215996 5.65798 0.390682 5.79241C0.565367 5.92685 0.779575 5.9998 1 5.99992V12.9999C0.734784 12.9999 0.48043 13.1053 0.292893 13.2928C0.105357 13.4804 0 13.7347 0 13.9999C0 14.2651 0.105357 14.5195 0.292893 14.707C0.48043 14.8946 0.734784 14.9999 1 14.9999H15C15.2652 14.9999 15.5196 14.8946 15.7071 14.707C15.8946 14.5195 16 14.2651 16 13.9999C16 13.7347 15.8946 13.4804 15.7071 13.2928C15.5196 13.1053 15.2652 12.9999 15 12.9999V5.99992C15.2204 5.9998 15.4346 5.92685 15.6093 5.79241C15.784 5.65798 15.9094 5.4696 15.9659 5.25655C16.0225 5.04351 16.0071 4.81775 15.9221 4.61436C15.8371 4.41098 15.6873 4.24138 15.496 4.13192L8.496 0.131922ZM4 6.99992C3.73478 6.99992 3.48043 7.10528 3.29289 7.29282C3.10536 7.48035 3 7.73471 3 7.99992V10.9999C3 11.2651 3.10536 11.5195 3.29289 11.707C3.48043 11.8946 3.73478 11.9999 4 11.9999C4.26522 11.9999 4.51957 11.8946 4.70711 11.707C4.89464 11.5195 5 11.2651 5 10.9999V7.99992C5 7.73471 4.89464 7.48035 4.70711 7.29282C4.51957 7.10528 4.26522 6.99992 4 6.99992ZM7 7.99992C7 7.73471 7.10536 7.48035 7.29289 7.29282C7.48043 7.10528 7.73478 6.99992 8 6.99992C8.26522 6.99992 8.51957 7.10528 8.70711 7.29282C8.89464 7.48035 9 7.73471 9 7.99992V10.9999C9 11.2651 8.89464 11.5195 8.70711 11.707C8.51957 11.8946 8.26522 11.9999 8 11.9999C7.73478 11.9999 7.48043 11.8946 7.29289 11.707C7.10536 11.5195 7 11.2651 7 10.9999V7.99992ZM12 6.99992C11.7348 6.99992 11.4804 7.10528 11.2929 7.29282C11.1054 7.48035 11 7.73471 11 7.99992V10.9999C11 11.2651 11.1054 11.5195 11.2929 11.707C11.4804 11.8946 11.7348 11.9999 12 11.9999C12.2652 11.9999 12.5196 11.8946 12.7071 11.707C12.8946 11.5195 13 11.2651 13 10.9999V7.99992C13 7.73471 12.8946 7.48035 12.7071 7.29282C12.5196 7.10528 12.2652 6.99992 12 6.99992Z" fill="#95999F" />
</svg>
    