<svg width="48" height="48" viewBox="0 0 48 48" fill="none" xmlns="http://www.w3.org/2000/svg">
    <circle opacity="0.4" cx="24" cy="24" r="23.25" stroke="#FDFDFD" stroke-width="1.5" />
    <path fill-rule="evenodd" clip-rule="evenodd" d="M19.1083 19.1093C19.269 18.9486 19.487 18.8584 19.7143 18.8584C19.9416 18.8584 20.1596 18.9486 20.3203 19.1093L24 22.789L27.6797 19.1093C27.7588 19.0275 27.8534 18.9622 27.9579 18.9172C28.0625 18.8723 28.175 18.8487 28.2888 18.8477C28.4026 18.8467 28.5155 18.8684 28.6208 18.9115C28.7262 18.9546 28.8219 19.0182 28.9023 19.0987C28.9828 19.1792 29.0465 19.2749 29.0896 19.3802C29.1327 19.4856 29.1544 19.5984 29.1534 19.7122C29.1524 19.8261 29.1287 19.9385 29.0838 20.0431C29.0389 20.1477 28.9736 20.2423 28.8917 20.3213L25.212 24.001L28.8917 27.6808C29.0479 27.8424 29.1342 28.0589 29.1323 28.2837C29.1303 28.5084 29.0402 28.7234 28.8813 28.8823C28.7224 29.0412 28.5074 29.1314 28.2826 29.1333C28.0579 29.1353 27.8414 29.0489 27.6797 28.8928L24 25.213L20.3203 28.8928C20.1586 29.0489 19.9421 29.1353 19.7174 29.1333C19.4926 29.1314 19.2777 29.0412 19.1187 28.8823C18.9598 28.7234 18.8697 28.5084 18.8677 28.2837C18.8658 28.0589 18.9522 27.8424 19.1083 27.6808L22.788 24.001L19.1083 20.3213C18.9476 20.1606 18.8573 19.9426 18.8573 19.7153C18.8573 19.488 18.9476 19.2701 19.1083 19.1093Z" fill="#FDFDFD" />
</svg>
    