<svg width="92" height="92" viewBox="0 0 92 92" fill="none" xmlns="http://www.w3.org/2000/svg">
    <circle cx="46" cy="46" r="46" fill="#F3F2F5" />
    <path d="M25 48.5714C25 47.8894 25.2766 47.2354 25.7688 46.7532C26.2611 46.2709 26.9288 46 27.625 46H32.875C33.5712 46 34.2389 46.2709 34.7312 46.7532C35.2234 47.2354 35.5 47.8894 35.5 48.5714V61.4286C35.5 62.1106 35.2234 62.7646 34.7312 63.2468C34.2389 63.7291 33.5712 64 32.875 64H27.625C26.9288 64 26.2611 63.7291 25.7688 63.2468C25.2766 62.7646 25 62.1106 25 61.4286V48.5714ZM40.75 38.2857C40.75 37.6037 41.0266 36.9497 41.5188 36.4674C42.0111 35.9852 42.6788 35.7143 43.375 35.7143H48.625C49.3212 35.7143 49.9889 35.9852 50.4812 36.4674C50.9734 36.9497 51.25 37.6037 51.25 38.2857V61.4286C51.25 62.1106 50.9734 62.7646 50.4812 63.2468C49.9889 63.7291 49.3212 64 48.625 64H43.375C42.6788 64 42.0111 63.7291 41.5188 63.2468C41.0266 62.7646 40.75 62.1106 40.75 61.4286V38.2857ZM56.5 30.5714C56.5 29.8894 56.7766 29.2354 57.2688 28.7532C57.7611 28.2709 58.4288 28 59.125 28H64.375C65.0712 28 65.7389 28.2709 66.2312 28.7532C66.7234 29.2354 67 29.8894 67 30.5714V61.4286C67 62.1106 66.7234 62.7646 66.2312 63.2468C65.7389 63.7291 65.0712 64 64.375 64H59.125C58.4288 64 57.7611 63.7291 57.2688 63.2468C56.7766 62.7646 56.5 62.1106 56.5 61.4286V30.5714Z" fill="#FF6939" />
    <g filter="url(#filter0_bii_334_163)">
        <path d="M25 48.5714C25 47.8894 25.2766 47.2354 25.7688 46.7532C26.2611 46.2709 26.9288 46 27.625 46H32.875C33.5712 46 34.2389 46.2709 34.7312 46.7532C35.2234 47.2354 35.5 47.8894 35.5 48.5714V61.4286C35.5 62.1106 35.2234 62.7646 34.7312 63.2468C34.2389 63.7291 33.5712 64 32.875 64H27.625C26.9288 64 26.2611 63.7291 25.7688 63.2468C25.2766 62.7646 25 62.1106 25 61.4286V48.5714ZM40.75 38.2857C40.75 37.6037 41.0266 36.9497 41.5188 36.4674C42.0111 35.9852 42.6788 35.7143 43.375 35.7143H48.625C49.3212 35.7143 49.9889 35.9852 50.4812 36.4674C50.9734 36.9497 51.25 37.6037 51.25 38.2857V61.4286C51.25 62.1106 50.9734 62.7646 50.4812 63.2468C49.9889 63.7291 49.3212 64 48.625 64H43.375C42.6788 64 42.0111 63.7291 41.5188 63.2468C41.0266 62.7646 40.75 62.1106 40.75 61.4286V38.2857ZM56.5 30.5714C56.5 29.8894 56.7766 29.2354 57.2688 28.7532C57.7611 28.2709 58.4288 28 59.125 28H64.375C65.0712 28 65.7389 28.2709 66.2312 28.7532C66.7234 29.2354 67 29.8894 67 30.5714V61.4286C67 62.1106 66.7234 62.7646 66.2312 63.2468C65.7389 63.7291 65.0712 64 64.375 64H59.125C58.4288 64 57.7611 63.7291 57.2688 63.2468C56.7766 62.7646 56.5 62.1106 56.5 61.4286V30.5714Z" fill="black" fill-opacity="0.03" />
    </g>
    <defs>
        <filter id="filter0_bii_334_163" x="13.0449" y="16.0449" width="65.9101" height="59.9101" filterUnits="userSpaceOnUse" color-interpolation-filters="sRGB">
            <feFlood flood-opacity="0" result="BackgroundImageFix" />
            <feGaussianBlur in="BackgroundImage" stdDeviation="5.97753" />
            <feComposite in2="SourceAlpha" operator="in" result="effect1_backgroundBlur_334_163" />
            <feBlend mode="normal" in="SourceGraphic" in2="effect1_backgroundBlur_334_163" result="shape" />
            <feColorMatrix in="SourceAlpha" type="matrix" values="0 0 0 0 0 0 0 0 0 0 0 0 0 0 0 0 0 0 127 0" result="hardAlpha" />
            <feOffset dy="0.587079" />
            <feGaussianBlur stdDeviation="0.293539" />
            <feComposite in2="hardAlpha" operator="arithmetic" k2="-1" k3="1" />
            <feColorMatrix type="matrix" values="0 0 0 0 0 0 0 0 0 0 0 0 0 0 0 0 0 0 0.15 0" />
            <feBlend mode="normal" in2="shape" result="effect2_innerShadow_334_163" />
            <feColorMatrix in="SourceAlpha" type="matrix" values="0 0 0 0 0 0 0 0 0 0 0 0 0 0 0 0 0 0 127 0" result="hardAlpha" />
            <feOffset />
            <feGaussianBlur stdDeviation="4.99017" />
            <feComposite in2="hardAlpha" operator="arithmetic" k2="-1" k3="1" />
            <feColorMatrix type="matrix" values="0 0 0 0 0 0 0 0 0 0 0 0 0 0 0 0 0 0 0.05 0" />
            <feBlend mode="normal" in2="effect2_innerShadow_334_163" result="effect3_innerShadow_334_163" />
        </filter>
    </defs>
</svg>
    