<svg viewBox="0 0 56 56" class="tw-text-[#FDFDFD]" fill="none" xmlns="http://www.w3.org/2000/svg">
    <circle opacity="0.4" cx="28" cy="28" r="27.25" stroke="#FDFDFD" stroke-width="1.5" />
    <path class="tw-fill-current" fill-rule="evenodd" clip-rule="evenodd" d="M28 21C28.2652 21 28.5196 21.1054 28.7071 21.2929C28.8946 21.4804 29 21.7348 29 22V27H34C34.2652 27 34.5196 27.1054 34.7071 27.2929C34.8946 27.4804 35 27.7348 35 28C35 28.2652 34.8946 28.5196 34.7071 28.7071C34.5196 28.8946 34.2652 29 34 29H29V34C29 34.2652 28.8946 34.5196 28.7071 34.7071C28.5196 34.8946 28.2652 35 28 35C27.7348 35 27.4804 34.8946 27.2929 34.7071C27.1054 34.5196 27 34.2652 27 34V29H22C21.7348 29 21.4804 28.8946 21.2929 28.7071C21.1054 28.5196 21 28.2652 21 28C21 27.7348 21.1054 27.4804 21.2929 27.2929C21.4804 27.1054 21.7348 27 22 27H27V22C27 21.7348 27.1054 21.4804 27.2929 21.2929C27.4804 21.1054 27.7348 21 28 21V21Z" />
</svg>
    