<svg width="92" height="92" viewBox="0 0 92 92" fill="none" xmlns="http://www.w3.org/2000/svg">
    <circle cx="46" cy="46" r="46" fill="#F3F2F5" />
    <path fill-rule="evenodd" clip-rule="evenodd" d="M36.4 36.4V34C36.4 32.0905 37.1586 30.2591 38.5088 28.9089C39.8591 27.5586 41.6904 26.8 43.6 26.8H48.4C50.3095 26.8 52.1409 27.5586 53.4912 28.9089C54.8414 30.2591 55.6 32.0905 55.6 34V36.4H60.4C61.673 36.4 62.8939 36.9058 63.7941 37.8059C64.6943 38.7061 65.2 39.927 65.2 41.2V49.768C59.0551 52.045 52.5532 53.2072 46 53.2001C39.4468 53.2073 32.9449 52.0451 26.8 49.768V41.2C26.8 39.927 27.3057 38.7061 28.2059 37.8059C29.106 36.9058 30.3269 36.4 31.6 36.4H36.4ZM41.2 34C41.2 33.3635 41.4528 32.7531 41.9029 32.303C42.353 31.8529 42.9635 31.6 43.6 31.6H48.4C49.0365 31.6 49.647 31.8529 50.097 32.303C50.5471 32.7531 50.8 33.3635 50.8 34V36.4H41.2V34ZM43.6 46C43.6 45.3635 43.8528 44.7531 44.3029 44.303C44.753 43.8529 45.3635 43.6 46 43.6H46.024C46.6605 43.6 47.271 43.8529 47.721 44.303C48.1711 44.7531 48.424 45.3635 48.424 46C48.424 46.6366 48.1711 47.247 47.721 47.6971C47.271 48.1472 46.6605 48.4 46.024 48.4H46C45.3635 48.4 44.753 48.1472 44.3029 47.6971C43.8528 47.247 43.6 46.6366 43.6 46Z" fill="#3772FF" />
    <g filter="url(#filter0_bii_334_191)">
        <path fill-rule="evenodd" clip-rule="evenodd" d="M36.4 36.4V34C36.4 32.0905 37.1586 30.2591 38.5088 28.9089C39.8591 27.5586 41.6904 26.8 43.6 26.8H48.4C50.3095 26.8 52.1409 27.5586 53.4912 28.9089C54.8414 30.2591 55.6 32.0905 55.6 34V36.4H60.4C61.673 36.4 62.8939 36.9058 63.7941 37.8059C64.6943 38.7061 65.2 39.927 65.2 41.2V49.768C59.0551 52.045 52.5532 53.2072 46 53.2001C39.4468 53.2073 32.9449 52.0451 26.8 49.768V41.2C26.8 39.927 27.3057 38.7061 28.2059 37.8059C29.106 36.9058 30.3269 36.4 31.6 36.4H36.4ZM41.2 34C41.2 33.3635 41.4528 32.7531 41.9029 32.303C42.353 31.8529 42.9635 31.6 43.6 31.6H48.4C49.0365 31.6 49.647 31.8529 50.097 32.303C50.5471 32.7531 50.8 33.3635 50.8 34V36.4H41.2V34ZM43.6 46C43.6 45.3635 43.8528 44.7531 44.3029 44.303C44.753 43.8529 45.3635 43.6 46 43.6H46.024C46.6605 43.6 47.271 43.8529 47.721 44.303C48.1711 44.7531 48.424 45.3635 48.424 46C48.424 46.6366 48.1711 47.247 47.721 47.6971C47.271 48.1472 46.6605 48.4 46.024 48.4H46C45.3635 48.4 44.753 48.1472 44.3029 47.6971C43.8528 47.247 43.6 46.6366 43.6 46Z" fill="black" fill-opacity="0.03" />
    </g>
    <path d="M26.8 54.8606V60.3998C26.8 61.6728 27.3057 62.8937 28.2059 63.7939C29.106 64.6941 30.3269 65.1998 31.6 65.1998H60.4C61.673 65.1998 62.8939 64.6941 63.7941 63.7939C64.6943 62.8937 65.2 61.6728 65.2 60.3998V54.8606C59.0136 56.9456 52.5282 58.006 46 57.9998C39.2896 57.9998 32.8312 56.8958 26.8 54.8606Z" fill="#3772FF" />
    <g filter="url(#filter1_bii_334_191)">
        <path d="M26.8 54.8606V60.3998C26.8 61.6728 27.3057 62.8937 28.2059 63.7939C29.106 64.6941 30.3269 65.1998 31.6 65.1998H60.4C61.673 65.1998 62.8939 64.6941 63.7941 63.7939C64.6943 62.8937 65.2 61.6728 65.2 60.3998V54.8606C59.0136 56.9456 52.5282 58.006 46 57.9998C39.2896 57.9998 32.8312 56.8958 26.8 54.8606Z" fill="black" fill-opacity="0.03" />
    </g>
    <defs>
        <filter id="filter0_bii_334_191" x="14.8449" y="14.845" width="62.3101" height="50.3103" filterUnits="userSpaceOnUse" color-interpolation-filters="sRGB">
            <feFlood flood-opacity="0" result="BackgroundImageFix" />
            <feGaussianBlur in="BackgroundImage" stdDeviation="5.97753" />
            <feComposite in2="SourceAlpha" operator="in" result="effect1_backgroundBlur_334_191" />
            <feBlend mode="normal" in="SourceGraphic" in2="effect1_backgroundBlur_334_191" result="shape" />
            <feColorMatrix in="SourceAlpha" type="matrix" values="0 0 0 0 0 0 0 0 0 0 0 0 0 0 0 0 0 0 127 0" result="hardAlpha" />
            <feOffset dy="0.587079" />
            <feGaussianBlur stdDeviation="0.293539" />
            <feComposite in2="hardAlpha" operator="arithmetic" k2="-1" k3="1" />
            <feColorMatrix type="matrix" values="0 0 0 0 0 0 0 0 0 0 0 0 0 0 0 0 0 0 0.15 0" />
            <feBlend mode="normal" in2="shape" result="effect2_innerShadow_334_191" />
            <feColorMatrix in="SourceAlpha" type="matrix" values="0 0 0 0 0 0 0 0 0 0 0 0 0 0 0 0 0 0 127 0" result="hardAlpha" />
            <feOffset />
            <feGaussianBlur stdDeviation="4.99017" />
            <feComposite in2="hardAlpha" operator="arithmetic" k2="-1" k3="1" />
            <feColorMatrix type="matrix" values="0 0 0 0 0 0 0 0 0 0 0 0 0 0 0 0 0 0 0.05 0" />
            <feBlend mode="normal" in2="effect2_innerShadow_334_191" result="effect3_innerShadow_334_191" />
        </filter>
        <filter id="filter1_bii_334_191" x="14.8449" y="42.9055" width="62.3101" height="34.2492" filterUnits="userSpaceOnUse" color-interpolation-filters="sRGB">
            <feFlood flood-opacity="0" result="BackgroundImageFix" />
            <feGaussianBlur in="BackgroundImage" stdDeviation="5.97753" />
            <feComposite in2="SourceAlpha" operator="in" result="effect1_backgroundBlur_334_191" />
            <feBlend mode="normal" in="SourceGraphic" in2="effect1_backgroundBlur_334_191" result="shape" />
            <feColorMatrix in="SourceAlpha" type="matrix" values="0 0 0 0 0 0 0 0 0 0 0 0 0 0 0 0 0 0 127 0" result="hardAlpha" />
            <feOffset dy="0.587079" />
            <feGaussianBlur stdDeviation="0.293539" />
            <feComposite in2="hardAlpha" operator="arithmetic" k2="-1" k3="1" />
            <feColorMatrix type="matrix" values="0 0 0 0 0 0 0 0 0 0 0 0 0 0 0 0 0 0 0.15 0" />
            <feBlend mode="normal" in2="shape" result="effect2_innerShadow_334_191" />
            <feColorMatrix in="SourceAlpha" type="matrix" values="0 0 0 0 0 0 0 0 0 0 0 0 0 0 0 0 0 0 127 0" result="hardAlpha" />
            <feOffset />
            <feGaussianBlur stdDeviation="4.99017" />
            <feComposite in2="hardAlpha" operator="arithmetic" k2="-1" k3="1" />
            <feColorMatrix type="matrix" values="0 0 0 0 0 0 0 0 0 0 0 0 0 0 0 0 0 0 0.05 0" />
            <feBlend mode="normal" in2="effect2_innerShadow_334_191" result="effect3_innerShadow_334_191" />
        </filter>
    </defs>
</svg>
    