<svg viewBox="0 0 92 92" class="tw-font-blue-1" fill="none" xmlns="http://www.w3.org/2000/svg">
    <circle cx="46" cy="46" r="46" fill="#F3F2F5" />
    <!-- fill="#3772FF" -->
    <path class="tw-fill-current" d="M48.75 26.75C48.75 26.0207 48.4603 25.3212 47.9445 24.8055C47.4288 24.2897 46.7293 24 46 24C45.2707 24 44.5712 24.2897 44.0555 24.8055C43.5397 25.3212 43.25 26.0207 43.25 26.75V29.5C43.25 30.2293 43.5397 30.9288 44.0555 31.4445C44.5712 31.9603 45.2707 32.25 46 32.25C46.7293 32.25 47.4288 31.9603 47.9445 31.4445C48.4603 30.9288 48.75 30.2293 48.75 29.5V26.75ZM61.5567 34.3317C62.0577 33.8131 62.3349 33.1184 62.3286 32.3974C62.3223 31.6764 62.0331 30.9866 61.5233 30.4767C61.0134 29.9669 60.3236 29.6777 59.6026 29.6714C58.8816 29.6651 58.1869 29.9423 57.6682 30.4432L55.724 32.3875C55.2231 32.9062 54.9459 33.6008 54.9521 34.3219C54.9584 35.0429 55.2476 35.7326 55.7575 36.2425C56.2674 36.7524 56.9571 37.0416 57.6781 37.0479C58.3992 37.0541 59.0938 36.7769 59.6125 36.276L61.5567 34.3317ZM68 46C68 46.7293 67.7103 47.4288 67.1945 47.9445C66.6788 48.4603 65.9793 48.75 65.25 48.75H62.5C61.7707 48.75 61.0712 48.4603 60.5555 47.9445C60.0397 47.4288 59.75 46.7293 59.75 46C59.75 45.2707 60.0397 44.5712 60.5555 44.0555C61.0712 43.5397 61.7707 43.25 62.5 43.25H65.25C65.9793 43.25 66.6788 43.5397 67.1945 44.0555C67.7103 44.5712 68 45.2707 68 46ZM32.3875 36.276C32.6412 36.5387 32.9446 36.7482 33.2801 36.8923C33.6156 37.0364 33.9765 37.1123 34.3416 37.1154C34.7068 37.1186 35.0689 37.049 35.4069 36.9108C35.7448 36.7725 36.0519 36.5683 36.3101 36.3101C36.5683 36.0519 36.7725 35.7448 36.9108 35.4069C37.049 35.0689 37.1186 34.7068 37.1154 34.3416C37.1123 33.9765 37.0364 33.6156 36.8923 33.2801C36.7482 32.9446 36.5387 32.6412 36.276 32.3875L34.3317 30.4432C33.8131 29.9423 33.1184 29.6651 32.3974 29.6714C31.6764 29.6777 30.9866 29.9669 30.4767 30.4767C29.9669 30.9866 29.6777 31.6764 29.6714 32.3974C29.6651 33.1184 29.9423 33.8131 30.4432 34.3317L32.3875 36.276ZM32.25 46C32.25 46.7293 31.9603 47.4288 31.4445 47.9445C30.9288 48.4603 30.2293 48.75 29.5 48.75H26.75C26.0207 48.75 25.3212 48.4603 24.8055 47.9445C24.2897 47.4288 24 46.7293 24 46C24 45.2707 24.2897 44.5712 24.8055 44.0555C25.3212 43.5397 26.0207 43.25 26.75 43.25H29.5C30.2293 43.25 30.9288 43.5397 31.4445 44.0555C31.9603 44.5712 32.25 45.2707 32.25 46ZM40.5 62.5V59.75H51.5V62.5C51.5 63.9587 50.9205 65.3576 49.8891 66.3891C48.8576 67.4205 47.4587 68 46 68C44.5413 68 43.1424 67.4205 42.1109 66.3891C41.0795 65.3576 40.5 63.9587 40.5 62.5ZM51.5 57C51.5412 56.065 52.072 55.2235 52.8117 54.6377C54.6066 53.2222 55.9159 51.2827 56.5576 49.0887C57.1994 46.8947 57.1417 44.5553 56.3925 42.3957C55.6434 40.236 54.24 38.3634 52.3775 37.0381C50.515 35.7128 48.2859 35.0006 46 35.0006C43.7141 35.0006 41.485 35.7128 39.6225 37.0381C37.76 38.3634 36.3566 40.236 35.6075 42.3957C34.8583 44.5553 34.8006 46.8947 35.4424 49.0887C36.0841 51.2827 37.3934 53.2222 39.1882 54.6377C39.9307 55.2235 40.4587 56.065 40.4972 57H51.5028H51.5Z" />
    <g filter="url(#filter0_bii_36_1858)">
        <path d="M48.75 26.75C48.75 26.0207 48.4603 25.3212 47.9445 24.8055C47.4288 24.2897 46.7293 24 46 24C45.2707 24 44.5712 24.2897 44.0555 24.8055C43.5397 25.3212 43.25 26.0207 43.25 26.75V29.5C43.25 30.2293 43.5397 30.9288 44.0555 31.4445C44.5712 31.9603 45.2707 32.25 46 32.25C46.7293 32.25 47.4288 31.9603 47.9445 31.4445C48.4603 30.9288 48.75 30.2293 48.75 29.5V26.75ZM61.5567 34.3317C62.0577 33.8131 62.3349 33.1184 62.3286 32.3974C62.3223 31.6764 62.0331 30.9866 61.5233 30.4767C61.0134 29.9669 60.3236 29.6777 59.6026 29.6714C58.8816 29.6651 58.1869 29.9423 57.6682 30.4432L55.724 32.3875C55.2231 32.9062 54.9459 33.6008 54.9521 34.3219C54.9584 35.0429 55.2476 35.7326 55.7575 36.2425C56.2674 36.7524 56.9571 37.0416 57.6781 37.0479C58.3992 37.0541 59.0938 36.7769 59.6125 36.276L61.5567 34.3317ZM68 46C68 46.7293 67.7103 47.4288 67.1945 47.9445C66.6788 48.4603 65.9793 48.75 65.25 48.75H62.5C61.7707 48.75 61.0712 48.4603 60.5555 47.9445C60.0397 47.4288 59.75 46.7293 59.75 46C59.75 45.2707 60.0397 44.5712 60.5555 44.0555C61.0712 43.5397 61.7707 43.25 62.5 43.25H65.25C65.9793 43.25 66.6788 43.5397 67.1945 44.0555C67.7103 44.5712 68 45.2707 68 46ZM32.3875 36.276C32.6412 36.5387 32.9446 36.7482 33.2801 36.8923C33.6156 37.0364 33.9765 37.1123 34.3416 37.1154C34.7068 37.1186 35.0689 37.049 35.4069 36.9108C35.7448 36.7725 36.0519 36.5683 36.3101 36.3101C36.5683 36.0519 36.7725 35.7448 36.9108 35.4069C37.049 35.0689 37.1186 34.7068 37.1154 34.3416C37.1123 33.9765 37.0364 33.6156 36.8923 33.2801C36.7482 32.9446 36.5387 32.6412 36.276 32.3875L34.3317 30.4432C33.8131 29.9423 33.1184 29.6651 32.3974 29.6714C31.6764 29.6777 30.9866 29.9669 30.4767 30.4767C29.9669 30.9866 29.6777 31.6764 29.6714 32.3974C29.6651 33.1184 29.9423 33.8131 30.4432 34.3317L32.3875 36.276ZM32.25 46C32.25 46.7293 31.9603 47.4288 31.4445 47.9445C30.9288 48.4603 30.2293 48.75 29.5 48.75H26.75C26.0207 48.75 25.3212 48.4603 24.8055 47.9445C24.2897 47.4288 24 46.7293 24 46C24 45.2707 24.2897 44.5712 24.8055 44.0555C25.3212 43.5397 26.0207 43.25 26.75 43.25H29.5C30.2293 43.25 30.9288 43.5397 31.4445 44.0555C31.9603 44.5712 32.25 45.2707 32.25 46ZM40.5 62.5V59.75H51.5V62.5C51.5 63.9587 50.9205 65.3576 49.8891 66.3891C48.8576 67.4205 47.4587 68 46 68C44.5413 68 43.1424 67.4205 42.1109 66.3891C41.0795 65.3576 40.5 63.9587 40.5 62.5ZM51.5 57C51.5412 56.065 52.072 55.2235 52.8117 54.6377C54.6066 53.2222 55.9159 51.2827 56.5576 49.0887C57.1994 46.8947 57.1417 44.5553 56.3925 42.3957C55.6434 40.236 54.24 38.3634 52.3775 37.0381C50.515 35.7128 48.2859 35.0006 46 35.0006C43.7141 35.0006 41.485 35.7128 39.6225 37.0381C37.76 38.3634 36.3566 40.236 35.6075 42.3957C34.8583 44.5553 34.8006 46.8947 35.4424 49.0887C36.0841 51.2827 37.3934 53.2222 39.1882 54.6377C39.9307 55.2235 40.4587 56.065 40.4972 57H51.5028H51.5Z" fill="black" fill-opacity="0.03" />
    </g>
    <defs>
        <filter id="filter0_bii_36_1858" x="12.0449" y="12.0449" width="67.9101" height="67.9101" filterUnits="userSpaceOnUse" color-interpolation-filters="sRGB">
            <feFlood flood-opacity="0" result="BackgroundImageFix" />
            <feGaussianBlur in="BackgroundImage" stdDeviation="5.97753" />
            <feComposite in2="SourceAlpha" operator="in" result="effect1_backgroundBlur_36_1858" />
            <feBlend mode="normal" in="SourceGraphic" in2="effect1_backgroundBlur_36_1858" result="shape" />
            <feColorMatrix in="SourceAlpha" type="matrix" values="0 0 0 0 0 0 0 0 0 0 0 0 0 0 0 0 0 0 127 0" result="hardAlpha" />
            <feOffset dy="0.587079" />
            <feGaussianBlur stdDeviation="0.293539" />
            <feComposite in2="hardAlpha" operator="arithmetic" k2="-1" k3="1" />
            <feColorMatrix type="matrix" values="0 0 0 0 0 0 0 0 0 0 0 0 0 0 0 0 0 0 0.15 0" />
            <feBlend mode="normal" in2="shape" result="effect2_innerShadow_36_1858" />
            <feColorMatrix in="SourceAlpha" type="matrix" values="0 0 0 0 0 0 0 0 0 0 0 0 0 0 0 0 0 0 127 0" result="hardAlpha" />
            <feOffset />
            <feGaussianBlur stdDeviation="4.99017" />
            <feComposite in2="hardAlpha" operator="arithmetic" k2="-1" k3="1" />
            <feColorMatrix type="matrix" values="0 0 0 0 0 0 0 0 0 0 0 0 0 0 0 0 0 0 0.05 0" />
            <feBlend mode="normal" in2="effect2_innerShadow_36_1858" result="effect3_innerShadow_36_1858" />
        </filter>
    </defs>
</svg>
    