<svg width="92" height="92" viewBox="0 0 92 92" fill="none" xmlns="http://www.w3.org/2000/svg">
    <circle cx="46" cy="46" r="46" fill="#F3F2F5" />
    <path d="M53.2 34.4002C53.2 36.3098 52.4415 38.1411 51.0912 39.4914C49.7409 40.8416 47.9096 41.6002 46 41.6002C44.0905 41.6002 42.2591 40.8416 40.9089 39.4914C39.5586 38.1411 38.8 36.3098 38.8 34.4002C38.8 32.4906 39.5586 30.6593 40.9089 29.309C42.2591 27.9588 44.0905 27.2002 46 27.2002C47.9096 27.2002 49.7409 27.9588 51.0912 29.309C52.4415 30.6593 53.2 32.4906 53.2 34.4002ZM65.2 39.2002C65.2 40.4732 64.6943 41.6941 63.7941 42.5943C62.894 43.4945 61.6731 44.0002 60.4 44.0002C59.127 44.0002 57.9061 43.4945 57.0059 42.5943C56.1057 41.6941 55.6 40.4732 55.6 39.2002C55.6 37.9272 56.1057 36.7063 57.0059 35.8061C57.9061 34.9059 59.127 34.4002 60.4 34.4002C61.6731 34.4002 62.894 34.9059 63.7941 35.8061C64.6943 36.7063 65.2 37.9272 65.2 39.2002ZM55.6 56.0002C55.6 53.4541 54.5886 51.0123 52.7882 49.212C50.9879 47.4116 48.5461 46.4002 46 46.4002C43.4539 46.4002 41.0121 47.4116 39.2118 49.212C37.4115 51.0123 36.4 53.4541 36.4 56.0002V63.2002H55.6V56.0002ZM36.4 39.2002C36.4 40.4732 35.8943 41.6941 34.9941 42.5943C34.094 43.4945 32.8731 44.0002 31.6 44.0002C30.327 44.0002 29.1061 43.4945 28.2059 42.5943C27.3057 41.6941 26.8 40.4732 26.8 39.2002C26.8 37.9272 27.3057 36.7063 28.2059 35.8061C29.1061 34.9059 30.327 34.4002 31.6 34.4002C32.8731 34.4002 34.094 34.9059 34.9941 35.8061C35.8943 36.7063 36.4 37.9272 36.4 39.2002ZM60.4 63.2002V56.0002C60.4035 53.5601 59.7839 51.1595 58.6 49.0258C59.6641 48.7535 60.7762 48.7278 61.8517 48.9507C62.9272 49.1736 63.9375 49.6392 64.8057 50.312C65.6738 50.9847 66.3769 51.8469 66.8611 52.8327C67.3454 53.8185 67.5981 54.9019 67.6 56.0002V63.2002H60.4ZM33.4 49.0258C32.2162 51.1595 31.5967 53.5601 31.6 56.0002V63.2002H24.4V56.0002C24.3996 54.9011 24.6507 53.8165 25.1343 52.8295C25.6179 51.8424 26.321 50.9792 27.1897 50.306C28.0585 49.6327 29.0699 49.1673 30.1464 48.9454C31.2228 48.7235 32.3358 48.751 33.4 49.0258Z" fill="#FF6939" />
    <g filter="url(#filter0_bii_63_3387)">
        <path d="M53.2 34.4002C53.2 36.3098 52.4415 38.1411 51.0912 39.4914C49.7409 40.8416 47.9096 41.6002 46 41.6002C44.0905 41.6002 42.2591 40.8416 40.9089 39.4914C39.5586 38.1411 38.8 36.3098 38.8 34.4002C38.8 32.4906 39.5586 30.6593 40.9089 29.309C42.2591 27.9588 44.0905 27.2002 46 27.2002C47.9096 27.2002 49.7409 27.9588 51.0912 29.309C52.4415 30.6593 53.2 32.4906 53.2 34.4002ZM65.2 39.2002C65.2 40.4732 64.6943 41.6941 63.7941 42.5943C62.894 43.4945 61.6731 44.0002 60.4 44.0002C59.127 44.0002 57.9061 43.4945 57.0059 42.5943C56.1057 41.6941 55.6 40.4732 55.6 39.2002C55.6 37.9272 56.1057 36.7063 57.0059 35.8061C57.9061 34.9059 59.127 34.4002 60.4 34.4002C61.6731 34.4002 62.894 34.9059 63.7941 35.8061C64.6943 36.7063 65.2 37.9272 65.2 39.2002ZM55.6 56.0002C55.6 53.4541 54.5886 51.0123 52.7882 49.212C50.9879 47.4116 48.5461 46.4002 46 46.4002C43.4539 46.4002 41.0121 47.4116 39.2118 49.212C37.4115 51.0123 36.4 53.4541 36.4 56.0002V63.2002H55.6V56.0002ZM36.4 39.2002C36.4 40.4732 35.8943 41.6941 34.9941 42.5943C34.094 43.4945 32.8731 44.0002 31.6 44.0002C30.327 44.0002 29.1061 43.4945 28.2059 42.5943C27.3057 41.6941 26.8 40.4732 26.8 39.2002C26.8 37.9272 27.3057 36.7063 28.2059 35.8061C29.1061 34.9059 30.327 34.4002 31.6 34.4002C32.8731 34.4002 34.094 34.9059 34.9941 35.8061C35.8943 36.7063 36.4 37.9272 36.4 39.2002ZM60.4 63.2002V56.0002C60.4035 53.5601 59.7839 51.1595 58.6 49.0258C59.6641 48.7535 60.7762 48.7278 61.8517 48.9507C62.9272 49.1736 63.9375 49.6392 64.8057 50.312C65.6738 50.9847 66.3769 51.8469 66.8611 52.8327C67.3454 53.8185 67.5981 54.9019 67.6 56.0002V63.2002H60.4ZM33.4 49.0258C32.2162 51.1595 31.5967 53.5601 31.6 56.0002V63.2002H24.4V56.0002C24.3996 54.9011 24.6507 53.8165 25.1343 52.8295C25.6179 51.8424 26.321 50.9792 27.1897 50.306C28.0585 49.6327 29.0699 49.1673 30.1464 48.9454C31.2228 48.7235 32.3358 48.751 33.4 49.0258Z" fill="black" fill-opacity="0.03" />
    </g>
    <defs>
        <filter id="filter0_bii_63_3387" x="12.445" y="15.2451" width="67.1101" height="59.9101" filterUnits="userSpaceOnUse" color-interpolation-filters="sRGB">
            <feFlood flood-opacity="0" result="BackgroundImageFix" />
            <feGaussianBlur in="BackgroundImage" stdDeviation="5.97753" />
            <feComposite in2="SourceAlpha" operator="in" result="effect1_backgroundBlur_63_3387" />
            <feBlend mode="normal" in="SourceGraphic" in2="effect1_backgroundBlur_63_3387" result="shape" />
            <feColorMatrix in="SourceAlpha" type="matrix" values="0 0 0 0 0 0 0 0 0 0 0 0 0 0 0 0 0 0 127 0" result="hardAlpha" />
            <feOffset dy="0.587079" />
            <feGaussianBlur stdDeviation="0.293539" />
            <feComposite in2="hardAlpha" operator="arithmetic" k2="-1" k3="1" />
            <feColorMatrix type="matrix" values="0 0 0 0 0 0 0 0 0 0 0 0 0 0 0 0 0 0 0.15 0" />
            <feBlend mode="normal" in2="shape" result="effect2_innerShadow_63_3387" />
            <feColorMatrix in="SourceAlpha" type="matrix" values="0 0 0 0 0 0 0 0 0 0 0 0 0 0 0 0 0 0 127 0" result="hardAlpha" />
            <feOffset />
            <feGaussianBlur stdDeviation="4.99017" />
            <feComposite in2="hardAlpha" operator="arithmetic" k2="-1" k3="1" />
            <feColorMatrix type="matrix" values="0 0 0 0 0 0 0 0 0 0 0 0 0 0 0 0 0 0 0.05 0" />
            <feBlend mode="normal" in2="effect2_innerShadow_63_3387" result="effect3_innerShadow_63_3387" />
        </filter>
    </defs>
</svg>
    