<svg class="tw-text-blue-1" viewBox="0 0 92 92" xmlns="http://www.w3.org/2000/svg">
    <circle cx="46" cy="46" r="46" fill="#F3F2F5" />
    <!-- fill="#3772FF" -->
    <path class="tw-fill-current" fill-rule="evenodd" clip-rule="evenodd" d="M46 68C58.1503 68 68 58.1503 68 46C68 33.8497 58.1503 24 46 24C33.8497 24 24 33.8497 24 46C24 58.1503 33.8497 68 46 68ZM48.0926 40.7347C48.3976 41.0352 48.8112 41.2039 49.2425 41.2039H53.448L47.6163 46.9486L43.8873 43.2753C43.5823 42.975 43.1687 42.8062 42.7375 42.8062C42.3063 42.8062 41.8927 42.975 41.5878 43.2753L33.4565 51.2851C33.1603 51.5873 32.9964 51.9919 33.0001 52.412C33.0038 52.832 33.1748 53.2338 33.4763 53.5308C33.7778 53.8278 34.1857 53.9963 34.6121 53.9999C35.0385 54.0036 35.4493 53.8421 35.756 53.5503L42.7375 46.6731L46.4665 50.3464C46.7715 50.6467 47.185 50.8154 47.6163 50.8154C48.0475 50.8154 48.461 50.6467 48.766 50.3464L55.7475 43.4691V47.6118C55.7475 48.0367 55.9188 48.4441 56.2238 48.7446C56.5288 49.045 56.9424 49.2138 57.3738 49.2138C57.8051 49.2138 58.2187 49.045 58.5237 48.7446C58.8287 48.4441 59 48.0367 59 47.6118V39.602C59 39.1771 58.8287 38.7696 58.5237 38.4692C58.2187 38.1688 57.8051 38 57.3738 38H49.2425C48.8112 38 48.3976 38.1688 48.0926 38.4692C47.7876 38.7696 47.6163 39.1771 47.6163 39.602C47.6163 40.0268 47.7876 40.4343 48.0926 40.7347Z" />
    <g filter="url(#filter0_bii_63_3473)">
        <path fill-rule="evenodd" clip-rule="evenodd" d="M46 68C58.1503 68 68 58.1503 68 46C68 33.8497 58.1503 24 46 24C33.8497 24 24 33.8497 24 46C24 58.1503 33.8497 68 46 68ZM48.0926 40.7347C48.3976 41.0352 48.8112 41.2039 49.2425 41.2039H53.448L47.6163 46.9486L43.8873 43.2753C43.5823 42.975 43.1687 42.8062 42.7375 42.8062C42.3063 42.8062 41.8927 42.975 41.5878 43.2753L33.4565 51.2851C33.1603 51.5873 32.9964 51.9919 33.0001 52.412C33.0038 52.832 33.1748 53.2338 33.4763 53.5308C33.7778 53.8278 34.1857 53.9963 34.6121 53.9999C35.0385 54.0036 35.4493 53.8421 35.756 53.5503L42.7375 46.6731L46.4665 50.3464C46.7715 50.6467 47.185 50.8154 47.6163 50.8154C48.0475 50.8154 48.461 50.6467 48.766 50.3464L55.7475 43.4691V47.6118C55.7475 48.0367 55.9188 48.4441 56.2238 48.7446C56.5288 49.045 56.9424 49.2138 57.3738 49.2138C57.8051 49.2138 58.2187 49.045 58.5237 48.7446C58.8287 48.4441 59 48.0367 59 47.6118V39.602C59 39.1771 58.8287 38.7696 58.5237 38.4692C58.2187 38.1688 57.8051 38 57.3738 38H49.2425C48.8112 38 48.3976 38.1688 48.0926 38.4692C47.7876 38.7696 47.6163 39.1771 47.6163 39.602C47.6163 40.0268 47.7876 40.4343 48.0926 40.7347Z" fill="black" fill-opacity="0.03" />
    </g>
    <defs>
        <filter id="filter0_bii_63_3473" x="12.0449" y="12.0449" width="67.9101" height="67.9101" filterUnits="userSpaceOnUse" color-interpolation-filters="sRGB">
            <feFlood flood-opacity="0" result="BackgroundImageFix" />
            <feGaussianBlur in="BackgroundImage" stdDeviation="5.97753" />
            <feComposite in2="SourceAlpha" operator="in" result="effect1_backgroundBlur_63_3473" />
            <feBlend mode="normal" in="SourceGraphic" in2="effect1_backgroundBlur_63_3473" result="shape" />
            <feColorMatrix in="SourceAlpha" type="matrix" values="0 0 0 0 0 0 0 0 0 0 0 0 0 0 0 0 0 0 127 0" result="hardAlpha" />
            <feOffset dy="0.587079" />
            <feGaussianBlur stdDeviation="0.293539" />
            <feComposite in2="hardAlpha" operator="arithmetic" k2="-1" k3="1" />
            <feColorMatrix type="matrix" values="0 0 0 0 0 0 0 0 0 0 0 0 0 0 0 0 0 0 0.15 0" />
            <feBlend mode="normal" in2="shape" result="effect2_innerShadow_63_3473" />
            <feColorMatrix in="SourceAlpha" type="matrix" values="0 0 0 0 0 0 0 0 0 0 0 0 0 0 0 0 0 0 127 0" result="hardAlpha" />
            <feOffset />
            <feGaussianBlur stdDeviation="4.99017" />
            <feComposite in2="hardAlpha" operator="arithmetic" k2="-1" k3="1" />
            <feColorMatrix type="matrix" values="0 0 0 0 0 0 0 0 0 0 0 0 0 0 0 0 0 0 0.05 0" />
            <feBlend mode="normal" in2="effect2_innerShadow_63_3473" result="effect3_innerShadow_63_3473" />
        </filter>
    </defs>
</svg>
    