<svg width="92" height="92" viewBox="0 0 92 92" fill="none" xmlns="http://www.w3.org/2000/svg">
    <circle cx="46" cy="46" r="46" fill="#F3F2F5" />
    <path fill-rule="evenodd" clip-rule="evenodd" d="M47.1904 27.1168C46.8279 26.9097 46.4176 26.8008 46 26.8008C45.5825 26.8008 45.1722 26.9097 44.8096 27.1168L28.0096 36.7168C27.5505 36.9795 27.1909 37.3865 26.987 37.8747C26.783 38.3628 26.746 38.9046 26.8818 39.4159C27.0175 39.9272 27.3184 40.3793 27.7377 40.702C28.1569 41.0246 28.671 41.1997 29.2 41.2V58C28.5635 58 27.9531 58.2529 27.503 58.703C27.0529 59.153 26.8 59.7635 26.8 60.4C26.8 61.0365 27.0529 61.647 27.503 62.0971C27.9531 62.5472 28.5635 62.8 29.2 62.8H62.8C63.4366 62.8 64.047 62.5472 64.4971 62.0971C64.9472 61.647 65.2 61.0365 65.2 60.4C65.2 59.7635 64.9472 59.153 64.4971 58.703C64.047 58.2529 63.4366 58 62.8 58V41.2C63.3291 41.1997 63.8432 41.0246 64.2624 40.702C64.6817 40.3793 64.9826 39.9272 65.1183 39.4159C65.2541 38.9046 65.2171 38.3628 65.0131 37.8747C64.8092 37.3865 64.4496 36.9795 63.9904 36.7168L47.1904 27.1168ZM36.4 43.6C35.7635 43.6 35.1531 43.8529 34.703 44.303C34.2529 44.753 34 45.3635 34 46V53.2C34 53.8365 34.2529 54.447 34.703 54.8971C35.1531 55.3472 35.7635 55.6 36.4 55.6C37.0366 55.6 37.647 55.3472 38.0971 54.8971C38.5472 54.447 38.8 53.8365 38.8 53.2V46C38.8 45.3635 38.5472 44.753 38.0971 44.303C37.647 43.8529 37.0366 43.6 36.4 43.6ZM43.6 46C43.6 45.3635 43.8529 44.753 44.303 44.303C44.7531 43.8529 45.3635 43.6 46 43.6C46.6366 43.6 47.247 43.8529 47.6971 44.303C48.1472 44.753 48.4 45.3635 48.4 46V53.2C48.4 53.8365 48.1472 54.447 47.6971 54.8971C47.247 55.3472 46.6366 55.6 46 55.6C45.3635 55.6 44.7531 55.3472 44.303 54.8971C43.8529 54.447 43.6 53.8365 43.6 53.2V46ZM55.6 43.6C54.9635 43.6 54.3531 43.8529 53.903 44.303C53.4529 44.753 53.2 45.3635 53.2 46V53.2C53.2 53.8365 53.4529 54.447 53.903 54.8971C54.3531 55.3472 54.9635 55.6 55.6 55.6C56.2366 55.6 56.847 55.3472 57.2971 54.8971C57.7472 54.447 58 53.8365 58 53.2V46C58 45.3635 57.7472 44.753 57.2971 44.303C56.847 43.8529 56.2366 43.6 55.6 43.6Z" fill="#FF6939" />
    <g filter="url(#filter0_bii_63_3395)">
        <path fill-rule="evenodd" clip-rule="evenodd" d="M47.1904 27.1168C46.8279 26.9097 46.4176 26.8008 46 26.8008C45.5825 26.8008 45.1722 26.9097 44.8096 27.1168L28.0096 36.7168C27.5505 36.9795 27.1909 37.3865 26.987 37.8747C26.783 38.3628 26.746 38.9046 26.8818 39.4159C27.0175 39.9272 27.3184 40.3793 27.7377 40.702C28.1569 41.0246 28.671 41.1997 29.2 41.2V58C28.5635 58 27.9531 58.2529 27.503 58.703C27.0529 59.153 26.8 59.7635 26.8 60.4C26.8 61.0365 27.0529 61.647 27.503 62.0971C27.9531 62.5472 28.5635 62.8 29.2 62.8H62.8C63.4366 62.8 64.047 62.5472 64.4971 62.0971C64.9472 61.647 65.2 61.0365 65.2 60.4C65.2 59.7635 64.9472 59.153 64.4971 58.703C64.047 58.2529 63.4366 58 62.8 58V41.2C63.3291 41.1997 63.8432 41.0246 64.2624 40.702C64.6817 40.3793 64.9826 39.9272 65.1183 39.4159C65.2541 38.9046 65.2171 38.3628 65.0131 37.8747C64.8092 37.3865 64.4496 36.9795 63.9904 36.7168L47.1904 27.1168ZM36.4 43.6C35.7635 43.6 35.1531 43.8529 34.703 44.303C34.2529 44.753 34 45.3635 34 46V53.2C34 53.8365 34.2529 54.447 34.703 54.8971C35.1531 55.3472 35.7635 55.6 36.4 55.6C37.0366 55.6 37.647 55.3472 38.0971 54.8971C38.5472 54.447 38.8 53.8365 38.8 53.2V46C38.8 45.3635 38.5472 44.753 38.0971 44.303C37.647 43.8529 37.0366 43.6 36.4 43.6ZM43.6 46C43.6 45.3635 43.8529 44.753 44.303 44.303C44.7531 43.8529 45.3635 43.6 46 43.6C46.6366 43.6 47.247 43.8529 47.6971 44.303C48.1472 44.753 48.4 45.3635 48.4 46V53.2C48.4 53.8365 48.1472 54.447 47.6971 54.8971C47.247 55.3472 46.6366 55.6 46 55.6C45.3635 55.6 44.7531 55.3472 44.303 54.8971C43.8529 54.447 43.6 53.8365 43.6 53.2V46ZM55.6 43.6C54.9635 43.6 54.3531 43.8529 53.903 44.303C53.4529 44.753 53.2 45.3635 53.2 46V53.2C53.2 53.8365 53.4529 54.447 53.903 54.8971C54.3531 55.3472 54.9635 55.6 55.6 55.6C56.2366 55.6 56.847 55.3472 57.2971 54.8971C57.7472 54.447 58 53.8365 58 53.2V46C58 45.3635 57.7472 44.753 57.2971 44.303C56.847 43.8529 56.2366 43.6 55.6 43.6Z" fill="black" fill-opacity="0.03" />
    </g>
    <defs>
        <filter id="filter0_bii_63_3395" x="14.845" y="14.8457" width="62.31" height="59.9091" filterUnits="userSpaceOnUse" color-interpolation-filters="sRGB">
            <feFlood flood-opacity="0" result="BackgroundImageFix" />
            <feGaussianBlur in="BackgroundImage" stdDeviation="5.97753" />
            <feComposite in2="SourceAlpha" operator="in" result="effect1_backgroundBlur_63_3395" />
            <feBlend mode="normal" in="SourceGraphic" in2="effect1_backgroundBlur_63_3395" result="shape" />
            <feColorMatrix in="SourceAlpha" type="matrix" values="0 0 0 0 0 0 0 0 0 0 0 0 0 0 0 0 0 0 127 0" result="hardAlpha" />
            <feOffset dy="0.587079" />
            <feGaussianBlur stdDeviation="0.293539" />
            <feComposite in2="hardAlpha" operator="arithmetic" k2="-1" k3="1" />
            <feColorMatrix type="matrix" values="0 0 0 0 0 0 0 0 0 0 0 0 0 0 0 0 0 0 0.15 0" />
            <feBlend mode="normal" in2="shape" result="effect2_innerShadow_63_3395" />
            <feColorMatrix in="SourceAlpha" type="matrix" values="0 0 0 0 0 0 0 0 0 0 0 0 0 0 0 0 0 0 127 0" result="hardAlpha" />
            <feOffset />
            <feGaussianBlur stdDeviation="4.99017" />
            <feComposite in2="hardAlpha" operator="arithmetic" k2="-1" k3="1" />
            <feColorMatrix type="matrix" values="0 0 0 0 0 0 0 0 0 0 0 0 0 0 0 0 0 0 0.05 0" />
            <feBlend mode="normal" in2="effect2_innerShadow_63_3395" result="effect3_innerShadow_63_3395" />
        </filter>
    </defs>
</svg>
    