<svg width="92" height="92" viewBox="0 0 92 92" fill="none" xmlns="http://www.w3.org/2000/svg">
    <circle cx="46" cy="46" r="46" fill="#F3F2F5" />
    <path d="M50.6392 53.3657C50.6392 53.3657 67.5808 41.1401 65.7016 27.1481C65.683 26.9105 65.5888 26.6851 65.4328 26.5049C65.2596 26.3443 65.0372 26.247 64.8016 26.2289C51.1288 24.3065 39.184 41.6417 39.184 41.6417C28.8208 40.4009 29.5744 42.4673 24.8464 53.8241C23.9416 55.9889 25.408 56.7353 27.016 56.1257L32.1712 54.1793L38.3872 60.5345L36.484 65.8121C35.8888 67.4585 36.616 68.9585 38.7352 68.0345C49.8328 63.1961 51.8536 63.9689 50.6392 53.3657ZM53.0608 39.1673C52.3704 38.4538 51.9843 37.4998 51.9843 36.5069C51.9843 35.514 52.3704 34.56 53.0608 33.8465C53.3984 33.4986 53.8024 33.222 54.2489 33.0331C54.6954 32.8442 55.1752 32.7468 55.66 32.7468C56.1448 32.7468 56.6247 32.8442 57.0712 33.0331C57.5176 33.222 57.9216 33.4986 58.2592 33.8465C58.9497 34.56 59.3358 35.514 59.3358 36.5069C59.3358 37.4998 58.9497 38.4538 58.2592 39.1673C57.9216 39.5152 57.5176 39.7919 57.0712 39.9808C56.6247 40.1696 56.1448 40.267 55.66 40.267C55.1752 40.267 54.6954 40.1696 54.2489 39.9808C53.8024 39.7919 53.3984 39.5152 53.0608 39.1673Z" fill="#3772FF" />
    <g filter="url(#filter0_bii_63_3391)">
        <path d="M50.6392 53.3657C50.6392 53.3657 67.5808 41.1401 65.7016 27.1481C65.683 26.9105 65.5888 26.6851 65.4328 26.5049C65.2596 26.3443 65.0372 26.247 64.8016 26.2289C51.1288 24.3065 39.184 41.6417 39.184 41.6417C28.8208 40.4009 29.5744 42.4673 24.8464 53.8241C23.9416 55.9889 25.408 56.7353 27.016 56.1257L32.1712 54.1793L38.3872 60.5345L36.484 65.8121C35.8888 67.4585 36.616 68.9585 38.7352 68.0345C49.8328 63.1961 51.8536 63.9689 50.6392 53.3657ZM53.0608 39.1673C52.3704 38.4538 51.9843 37.4998 51.9843 36.5069C51.9843 35.514 52.3704 34.56 53.0608 33.8465C53.3984 33.4986 53.8024 33.222 54.2489 33.0331C54.6954 32.8442 55.1752 32.7468 55.66 32.7468C56.1448 32.7468 56.6247 32.8442 57.0712 33.0331C57.5176 33.222 57.9216 33.4986 58.2592 33.8465C58.9497 34.56 59.3358 35.514 59.3358 36.5069C59.3358 37.4998 58.9497 38.4538 58.2592 39.1673C57.9216 39.5152 57.5176 39.7919 57.0712 39.9808C56.6247 40.1696 56.1448 40.267 55.66 40.267C55.1752 40.267 54.6954 40.1696 54.2489 39.9808C53.8024 39.7919 53.3984 39.5152 53.0608 39.1673Z" fill="black" fill-opacity="0.03" />
    </g>
    <defs>
        <filter id="filter0_bii_63_3391" x="12.6144" y="14.125" width="65.1878" height="66.1469" filterUnits="userSpaceOnUse" color-interpolation-filters="sRGB">
            <feFlood flood-opacity="0" result="BackgroundImageFix" />
            <feGaussianBlur in="BackgroundImage" stdDeviation="5.97753" />
            <feComposite in2="SourceAlpha" operator="in" result="effect1_backgroundBlur_63_3391" />
            <feBlend mode="normal" in="SourceGraphic" in2="effect1_backgroundBlur_63_3391" result="shape" />
            <feColorMatrix in="SourceAlpha" type="matrix" values="0 0 0 0 0 0 0 0 0 0 0 0 0 0 0 0 0 0 127 0" result="hardAlpha" />
            <feOffset dy="0.587079" />
            <feGaussianBlur stdDeviation="0.293539" />
            <feComposite in2="hardAlpha" operator="arithmetic" k2="-1" k3="1" />
            <feColorMatrix type="matrix" values="0 0 0 0 0 0 0 0 0 0 0 0 0 0 0 0 0 0 0.15 0" />
            <feBlend mode="normal" in2="shape" result="effect2_innerShadow_63_3391" />
            <feColorMatrix in="SourceAlpha" type="matrix" values="0 0 0 0 0 0 0 0 0 0 0 0 0 0 0 0 0 0 127 0" result="hardAlpha" />
            <feOffset />
            <feGaussianBlur stdDeviation="4.99017" />
            <feComposite in2="hardAlpha" operator="arithmetic" k2="-1" k3="1" />
            <feColorMatrix type="matrix" values="0 0 0 0 0 0 0 0 0 0 0 0 0 0 0 0 0 0 0.05 0" />
            <feBlend mode="normal" in2="effect2_innerShadow_63_3391" result="effect3_innerShadow_63_3391" />
        </filter>
    </defs>
</svg>
    