<svg class="tw-font-blue-1"  viewBox="0 0 92 92" fill="none" xmlns="http://www.w3.org/2000/svg">
    <circle cx="46" cy="46" r="46" fill="#F3F2F5" />
    <!-- fill="#3772FF" -->
    <path class="tw-fill-current" fill-rule="evenodd" clip-rule="evenodd" d="M36.2007 28.8191C37.8893 28.6843 39.4923 28.0201 40.7814 26.9212C42.2374 25.6811 44.0875 25 46 25C47.9125 25 49.7626 25.6811 51.2186 26.9212C52.5077 28.0201 54.1107 28.6843 55.7993 28.8191C57.7062 28.9715 59.4965 29.7981 60.8492 31.1508C62.2019 32.5035 63.0285 34.2938 63.1809 36.2007C63.3148 37.8886 63.9789 39.4925 65.0788 40.7814C66.3189 42.2374 67 44.0875 67 46C67 47.9125 66.3189 49.7626 65.0788 51.2186C63.9799 52.5077 63.3158 54.1107 63.1809 55.7993C63.0285 57.7062 62.2019 59.4965 60.8492 60.8492C59.4965 62.2019 57.7062 63.0285 55.7993 63.1809C54.1107 63.3158 52.5077 63.9799 51.2186 65.0788C49.7626 66.3189 47.9125 67 46 67C44.0875 67 42.2374 66.3189 40.7814 65.0788C39.4923 63.9799 37.8893 63.3158 36.2007 63.1809C34.2938 63.0285 32.5035 62.2019 31.1508 60.8492C29.7981 59.4965 28.9715 57.7062 28.8191 55.7993C28.6843 54.1107 28.0201 52.5077 26.9212 51.2186C25.6811 49.7626 25 47.9125 25 46C25 44.0875 25.6811 42.2374 26.9212 40.7814C28.0201 39.4923 28.6843 37.8893 28.8191 36.2007C28.9715 34.2938 29.7981 32.5035 31.1508 31.1508C32.5035 29.7981 34.2938 28.9715 36.2007 28.8191ZM55.731 42.6058C56.2092 42.1107 56.4738 41.4476 56.4678 40.7594C56.4618 40.0711 56.1858 39.4127 55.6991 38.926C55.2124 38.4393 54.554 38.1632 53.8657 38.1572C53.1774 38.1512 52.5143 38.4158 52.0192 38.894L43.375 47.5383L39.9808 44.1441C39.4857 43.6659 38.8226 43.4013 38.1343 43.4073C37.446 43.4133 36.7876 43.6894 36.3009 44.1761C35.8142 44.6628 35.5382 45.3212 35.5322 46.0095C35.5262 46.6977 35.7908 47.3608 36.269 47.8559L41.519 53.106C42.0113 53.5981 42.6789 53.8746 43.375 53.8746C44.071 53.8746 44.7386 53.5981 45.2309 53.106L55.731 42.6058Z"  />
    <g filter="url(#filter0_bii_334_183)">
        <path fill-rule="evenodd" clip-rule="evenodd" d="M36.2007 28.8191C37.8893 28.6843 39.4923 28.0201 40.7814 26.9212C42.2374 25.6811 44.0875 25 46 25C47.9125 25 49.7626 25.6811 51.2186 26.9212C52.5077 28.0201 54.1107 28.6843 55.7993 28.8191C57.7062 28.9715 59.4965 29.7981 60.8492 31.1508C62.2019 32.5035 63.0285 34.2938 63.1809 36.2007C63.3148 37.8886 63.9789 39.4925 65.0788 40.7814C66.3189 42.2374 67 44.0875 67 46C67 47.9125 66.3189 49.7626 65.0788 51.2186C63.9799 52.5077 63.3158 54.1107 63.1809 55.7993C63.0285 57.7062 62.2019 59.4965 60.8492 60.8492C59.4965 62.2019 57.7062 63.0285 55.7993 63.1809C54.1107 63.3158 52.5077 63.9799 51.2186 65.0788C49.7626 66.3189 47.9125 67 46 67C44.0875 67 42.2374 66.3189 40.7814 65.0788C39.4923 63.9799 37.8893 63.3158 36.2007 63.1809C34.2938 63.0285 32.5035 62.2019 31.1508 60.8492C29.7981 59.4965 28.9715 57.7062 28.8191 55.7993C28.6843 54.1107 28.0201 52.5077 26.9212 51.2186C25.6811 49.7626 25 47.9125 25 46C25 44.0875 25.6811 42.2374 26.9212 40.7814C28.0201 39.4923 28.6843 37.8893 28.8191 36.2007C28.9715 34.2938 29.7981 32.5035 31.1508 31.1508C32.5035 29.7981 34.2938 28.9715 36.2007 28.8191ZM55.731 42.6058C56.2092 42.1107 56.4738 41.4476 56.4678 40.7594C56.4618 40.0711 56.1858 39.4127 55.6991 38.926C55.2124 38.4393 54.554 38.1632 53.8657 38.1572C53.1774 38.1512 52.5143 38.4158 52.0192 38.894L43.375 47.5383L39.9808 44.1441C39.4857 43.6659 38.8226 43.4013 38.1343 43.4073C37.446 43.4133 36.7876 43.6894 36.3009 44.1761C35.8142 44.6628 35.5382 45.3212 35.5322 46.0095C35.5262 46.6977 35.7908 47.3608 36.269 47.8559L41.519 53.106C42.0113 53.5981 42.6789 53.8746 43.375 53.8746C44.071 53.8746 44.7386 53.5981 45.2309 53.106L55.731 42.6058Z" fill="black" fill-opacity="0.03" />
    </g>
    <defs>
        <filter id="filter0_bii_334_183" x="13.0449" y="13.0449" width="65.9101" height="65.9101" filterUnits="userSpaceOnUse" color-interpolation-filters="sRGB">
            <feFlood flood-opacity="0" result="BackgroundImageFix" />
            <feGaussianBlur in="BackgroundImage" stdDeviation="5.97753" />
            <feComposite in2="SourceAlpha" operator="in" result="effect1_backgroundBlur_334_183" />
            <feBlend mode="normal" in="SourceGraphic" in2="effect1_backgroundBlur_334_183" result="shape" />
            <feColorMatrix in="SourceAlpha" type="matrix" values="0 0 0 0 0 0 0 0 0 0 0 0 0 0 0 0 0 0 127 0" result="hardAlpha" />
            <feOffset dy="0.587079" />
            <feGaussianBlur stdDeviation="0.293539" />
            <feComposite in2="hardAlpha" operator="arithmetic" k2="-1" k3="1" />
            <feColorMatrix type="matrix" values="0 0 0 0 0 0 0 0 0 0 0 0 0 0 0 0 0 0 0.15 0" />
            <feBlend mode="normal" in2="shape" result="effect2_innerShadow_334_183" />
            <feColorMatrix in="SourceAlpha" type="matrix" values="0 0 0 0 0 0 0 0 0 0 0 0 0 0 0 0 0 0 127 0" result="hardAlpha" />
            <feOffset />
            <feGaussianBlur stdDeviation="4.99017" />
            <feComposite in2="hardAlpha" operator="arithmetic" k2="-1" k3="1" />
            <feColorMatrix type="matrix" values="0 0 0 0 0 0 0 0 0 0 0 0 0 0 0 0 0 0 0.05 0" />
            <feBlend mode="normal" in2="effect2_innerShadow_334_183" result="effect3_innerShadow_334_183" />
        </filter>
    </defs>
</svg>
    