<svg width="92" height="92" viewBox="0 0 92 92" fill="none" xmlns="http://www.w3.org/2000/svg">
    <circle cx="46" cy="46" r="46" fill="#F3F2F5" />
    <path fill-rule="evenodd" clip-rule="evenodd" d="M46 67C51.5695 67 56.911 64.7875 60.8492 60.8492C64.7875 56.911 67 51.5695 67 46C67 40.4305 64.7875 35.089 60.8492 31.1508C56.911 27.2125 51.5695 25 46 25C40.4305 25 35.089 27.2125 31.1508 31.1508C27.2125 35.089 25 40.4305 25 46C25 51.5695 27.2125 56.911 31.1508 60.8492C35.089 64.7875 40.4305 67 46 67ZM31.1215 40.8209C32.0961 38.0298 33.8352 35.5685 36.1405 33.7176C36.844 34.7913 38.0568 35.5 39.4375 35.5C40.4818 35.5 41.4833 35.9148 42.2217 36.6533C42.9602 37.3917 43.375 38.3932 43.375 39.4375V40.75C43.375 42.1424 43.9281 43.4777 44.9127 44.4623C45.8973 45.4469 47.2326 46 48.625 46C50.0174 46 51.3527 45.4469 52.3373 44.4623C53.3219 43.4777 53.875 42.1424 53.875 40.75C53.8746 39.5751 54.2683 38.434 54.9931 37.5094C55.7179 36.5847 56.7319 35.9298 57.8729 35.6496C60.3779 38.5153 61.7559 42.1938 61.75 46C61.75 46.8925 61.6765 47.7719 61.5321 48.625H59.125C57.7326 48.625 56.3973 49.1781 55.4127 50.1627C54.4281 51.1473 53.875 52.4826 53.875 53.875V59.6421C51.4818 61.0268 48.7649 61.754 46 61.75V56.5C46 55.1076 45.4469 53.7723 44.4623 52.7877C43.4777 51.8031 42.1424 51.25 40.75 51.25C39.3576 51.25 38.0223 50.6969 37.0377 49.7123C36.0531 48.7277 35.5 47.3924 35.5 46C35.5005 44.7584 35.0609 43.5568 34.2592 42.6086C33.4576 41.6604 32.3459 41.027 31.1215 40.8209Z" fill="#FF6939" />
    <g filter="url(#filter0_bii_36_2129)">
        <path fill-rule="evenodd" clip-rule="evenodd" d="M46 67C51.5695 67 56.911 64.7875 60.8492 60.8492C64.7875 56.911 67 51.5695 67 46C67 40.4305 64.7875 35.089 60.8492 31.1508C56.911 27.2125 51.5695 25 46 25C40.4305 25 35.089 27.2125 31.1508 31.1508C27.2125 35.089 25 40.4305 25 46C25 51.5695 27.2125 56.911 31.1508 60.8492C35.089 64.7875 40.4305 67 46 67ZM31.1215 40.8209C32.0961 38.0298 33.8352 35.5685 36.1405 33.7176C36.844 34.7913 38.0568 35.5 39.4375 35.5C40.4818 35.5 41.4833 35.9148 42.2217 36.6533C42.9602 37.3917 43.375 38.3932 43.375 39.4375V40.75C43.375 42.1424 43.9281 43.4777 44.9127 44.4623C45.8973 45.4469 47.2326 46 48.625 46C50.0174 46 51.3527 45.4469 52.3373 44.4623C53.3219 43.4777 53.875 42.1424 53.875 40.75C53.8746 39.5751 54.2683 38.434 54.9931 37.5094C55.7179 36.5847 56.7319 35.9298 57.8729 35.6496C60.3779 38.5153 61.7559 42.1938 61.75 46C61.75 46.8925 61.6765 47.7719 61.5321 48.625H59.125C57.7326 48.625 56.3973 49.1781 55.4127 50.1627C54.4281 51.1473 53.875 52.4826 53.875 53.875V59.6421C51.4818 61.0268 48.7649 61.754 46 61.75V56.5C46 55.1076 45.4469 53.7723 44.4623 52.7877C43.4777 51.8031 42.1424 51.25 40.75 51.25C39.3576 51.25 38.0223 50.6969 37.0377 49.7123C36.0531 48.7277 35.5 47.3924 35.5 46C35.5005 44.7584 35.0609 43.5568 34.2592 42.6086C33.4576 41.6604 32.3459 41.027 31.1215 40.8209Z" fill="black" fill-opacity="0.03" />
    </g>
    <defs>
        <filter id="filter0_bii_36_2129" x="13.0449" y="13.0449" width="65.9101" height="65.9101" filterUnits="userSpaceOnUse" color-interpolation-filters="sRGB">
            <feFlood flood-opacity="0" result="BackgroundImageFix" />
            <feGaussianBlur in="BackgroundImage" stdDeviation="5.97753" />
            <feComposite in2="SourceAlpha" operator="in" result="effect1_backgroundBlur_36_2129" />
            <feBlend mode="normal" in="SourceGraphic" in2="effect1_backgroundBlur_36_2129" result="shape" />
            <feColorMatrix in="SourceAlpha" type="matrix" values="0 0 0 0 0 0 0 0 0 0 0 0 0 0 0 0 0 0 127 0" result="hardAlpha" />
            <feOffset dy="0.587079" />
            <feGaussianBlur stdDeviation="0.293539" />
            <feComposite in2="hardAlpha" operator="arithmetic" k2="-1" k3="1" />
            <feColorMatrix type="matrix" values="0 0 0 0 0 0 0 0 0 0 0 0 0 0 0 0 0 0 0.15 0" />
            <feBlend mode="normal" in2="shape" result="effect2_innerShadow_36_2129" />
            <feColorMatrix in="SourceAlpha" type="matrix" values="0 0 0 0 0 0 0 0 0 0 0 0 0 0 0 0 0 0 127 0" result="hardAlpha" />
            <feOffset />
            <feGaussianBlur stdDeviation="4.99017" />
            <feComposite in2="hardAlpha" operator="arithmetic" k2="-1" k3="1" />
            <feColorMatrix type="matrix" values="0 0 0 0 0 0 0 0 0 0 0 0 0 0 0 0 0 0 0.05 0" />
            <feBlend mode="normal" in2="effect2_innerShadow_36_2129" result="effect3_innerShadow_36_2129" />
        </filter>
    </defs>
</svg>
    