<svg width="15" height="16" viewBox="0 0 15 16" fill="none" xmlns="http://www.w3.org/2000/svg">
    <path fill-rule="evenodd" clip-rule="evenodd" d="M1.5 2C1.5 1.46957 1.71071 0.960859 2.08579 0.585786C2.46086 0.210714 2.96957 0 3.5 0H11.5C12.0304 0 12.5391 0.210714 12.9142 0.585786C13.2893 0.960859 13.5 1.46957 13.5 2V14C13.7652 14 14.0196 14.1054 14.2071 14.2929C14.3946 14.4804 14.5 14.7348 14.5 15C14.5 15.2652 14.3946 15.5196 14.2071 15.7071C14.0196 15.8946 13.7652 16 13.5 16H10.5C10.2348 16 9.98043 15.8946 9.79289 15.7071C9.60536 15.5196 9.5 15.2652 9.5 15V13C9.5 12.7348 9.39464 12.4804 9.20711 12.2929C9.01957 12.1054 8.76522 12 8.5 12H6.5C6.23478 12 5.98043 12.1054 5.79289 12.2929C5.60536 12.4804 5.5 12.7348 5.5 13V15C5.5 15.2652 5.39464 15.5196 5.20711 15.7071C5.01957 15.8946 4.76522 16 4.5 16H1.5C1.23478 16 0.98043 15.8946 0.792893 15.7071C0.605357 15.5196 0.5 15.2652 0.5 15C0.5 14.7348 0.605357 14.4804 0.792893 14.2929C0.98043 14.1054 1.23478 14 1.5 14V2ZM4.5 3H6.5V5H4.5V3ZM6.5 7H4.5V9H6.5V7ZM8.5 3H10.5V5H8.5V3ZM10.5 7H8.5V9H10.5V7Z" fill="#95999F" />
</svg>
    