<svg width="400" height="248" viewBox="0 0 400 248" fill="none" xmlns="http://www.w3.org/2000/svg">
    <g clip-path="url(#clip0_185_1561)">
        <path fill-rule="evenodd" clip-rule="evenodd" d="M211.11 98.6048L194.908 82.4022L178.738 98.6048L194.908 114.774L211.11 98.6048Z" fill="#FDFDFD" />
        <path fill-rule="evenodd" clip-rule="evenodd" d="M211.21 114.973L195.04 98.8032L178.837 114.973L195.04 131.175L211.21 114.973Z" fill="url(#paint0_linear_185_1561)" />
        <path d="M211.11 98.6048L194.908 82.4022L178.738 98.6048L194.908 114.774L211.11 98.6048Z" stroke="#21242C" stroke-miterlimit="10" stroke-linecap="round" stroke-linejoin="round" />
        <path fill-rule="evenodd" clip-rule="evenodd" d="M213.227 137.888L210.813 135.507L208.432 137.888L210.813 140.269L213.227 137.888Z" fill="#3772FF" />
        <path d="M178.176 122.611C180.358 122.611 182.111 124.364 182.111 126.546C182.111 128.729 180.358 130.481 178.176 130.481C175.993 130.481 174.241 128.729 174.241 126.546C174.274 124.364 176.027 122.611 178.176 122.611Z" stroke="#21242C" stroke-miterlimit="10" stroke-linecap="round" stroke-linejoin="round" />
        <path fill-rule="evenodd" clip-rule="evenodd" d="M268.415 91.3302H122.955C122.955 91.3302 118.887 85.7419 122.624 80.5174C128.874 71.8539 145.539 70.399 156.418 77.376C156.418 77.376 152.847 65.7035 157.079 54.9238C162.039 42.2262 177.349 29.8262 198.644 32.4715C229.727 36.3403 236.803 71.92 236.803 71.92C236.803 71.92 246.69 58.3627 259.884 66.8608C273.573 75.7888 268.415 91.3302 268.415 91.3302Z" fill="url(#paint1_linear_185_1561)" />
        <path fill-rule="evenodd" clip-rule="evenodd" d="M99.4733 148H19.0558C19.0558 148 16.8073 144.886 18.873 141.974C22.3281 137.147 31.5416 136.336 37.556 140.224C37.556 140.224 35.5817 133.719 37.9216 127.712C40.6638 120.636 49.1278 113.726 60.9007 115.2C78.0847 117.356 81.9968 137.183 81.9968 137.183C81.9968 137.183 87.4628 129.629 94.7568 134.364C102.325 139.339 99.4733 148 99.4733 148Z" fill="url(#paint2_linear_185_1561)" />
        <path fill-rule="evenodd" clip-rule="evenodd" d="M371.666 167H320.67C320.67 167 319.244 165.018 320.554 163.166C322.745 160.093 328.587 159.577 332.401 162.052C332.401 162.052 331.149 157.912 332.633 154.09C334.372 149.587 339.74 145.189 347.205 146.128C358.102 147.499 360.583 160.117 360.583 160.117C360.583 160.117 364.05 155.309 368.675 158.323C373.474 161.489 371.666 167 371.666 167Z" fill="url(#paint3_linear_185_1561)" />
        <path fill-rule="evenodd" clip-rule="evenodd" d="M236.638 136.962L242.689 146.419L232.604 146.452L231.975 138.417L236.638 136.962Z" fill="#FDFDFD" stroke="#21242C" stroke-miterlimit="10" stroke-linecap="round" stroke-linejoin="round" />
        <path d="M229.925 131.572L227.015 133.325L228.074 134.912L229.925 131.572Z" stroke="#21242C" stroke-miterlimit="10" stroke-linecap="round" stroke-linejoin="round" />
        <path fill-rule="evenodd" clip-rule="evenodd" d="M237.96 129.82C236.307 128.034 232.835 128.563 230.19 131.01C227.544 133.457 226.718 136.863 228.371 138.649C230.024 140.434 233.496 139.905 236.142 137.458C238.787 135.011 239.614 131.605 237.96 129.82Z" fill="#FDFDFD" stroke="#21242C" stroke-miterlimit="10" stroke-linecap="round" stroke-linejoin="round" />
        <path fill-rule="evenodd" clip-rule="evenodd" d="M232.075 122.777C229.595 124.43 228.735 127.538 230.19 129.721C231.645 131.903 234.819 132.333 237.299 130.713C239.779 129.059 240.639 125.951 239.184 123.769C237.729 121.586 234.555 121.156 232.075 122.777Z" fill="#FF6939" />
        <path fill-rule="evenodd" clip-rule="evenodd" d="M230.355 132.597C229.991 132.928 229.826 133.358 229.991 133.523C230.157 133.689 230.587 133.556 230.95 133.193C231.314 132.862 231.479 132.432 231.314 132.267C231.149 132.101 230.719 132.267 230.355 132.597Z" fill="#21242C" />
        <path fill-rule="evenodd" clip-rule="evenodd" d="M242.524 132.697C241.565 130.878 239.581 130.018 238.126 130.779C236.671 131.539 236.274 133.656 237.233 135.474C238.192 137.293 240.176 138.153 241.631 137.392C243.086 136.632 243.483 134.515 242.524 132.697Z" fill="#FF6939" />
        <path fill-rule="evenodd" clip-rule="evenodd" d="M239.812 128.927C238.589 127.141 236.175 126.645 234.422 127.836C232.67 129.026 232.24 131.44 233.43 133.226C234.654 135.011 237.068 135.507 238.82 134.317C240.573 133.126 241.036 130.713 239.812 128.927Z" fill="#FF6939" />
        <path fill-rule="evenodd" clip-rule="evenodd" d="M241.168 129.125C240.639 128.166 238.953 128.133 237.365 128.993C235.811 129.853 234.951 131.341 235.481 132.3C236.01 133.259 237.696 133.292 239.283 132.432C240.87 131.539 241.697 130.084 241.168 129.125Z" fill="#FF6939" />
        <path fill-rule="evenodd" clip-rule="evenodd" d="M237.927 132.399C236.373 132.035 234.72 133.292 234.29 135.177C233.86 137.061 234.786 138.913 236.34 139.244C237.894 139.608 239.548 138.351 239.978 136.466C240.407 134.581 239.515 132.73 237.927 132.399Z" fill="#FF6939" />
        <path fill-rule="evenodd" clip-rule="evenodd" d="M236.968 135.772C236.241 134.978 234.885 135.077 233.926 135.97C232.967 136.863 232.769 138.186 233.496 138.979C234.224 139.773 235.58 139.674 236.539 138.781C237.498 137.888 237.696 136.532 236.968 135.772Z" fill="#FDFDFD" stroke="#21242C" stroke-miterlimit="10" stroke-linecap="round" stroke-linejoin="round" />
        <path fill-rule="evenodd" clip-rule="evenodd" d="M251.22 178.858C251.22 178.858 253.138 190.729 242.755 217.248C232.372 243.768 233.1 267.146 233.1 267.146L206.15 265.525C206.15 265.525 208.564 218.868 222.254 190.894C229.727 175.65 231.05 170.293 231.05 170.293L251.22 178.858Z" fill="#FF6939" stroke="#21242C" stroke-miterlimit="10" stroke-linecap="round" stroke-linejoin="round" />
        <path fill-rule="evenodd" clip-rule="evenodd" d="M254.692 181.106C254.692 181.106 251.22 201.045 255.122 214.371C262.132 238.378 269.572 267.642 269.572 267.642L242.16 269.196C242.16 269.196 222.584 242.379 224.205 217.215C225.825 192.018 235.315 169.169 235.315 169.169L254.692 181.106Z" fill="#FF6939" stroke="#21242C" stroke-miterlimit="10" stroke-linecap="round" stroke-linejoin="round" />
        <path fill-rule="evenodd" clip-rule="evenodd" d="M242.788 142.385C242.788 142.385 259.818 157.001 255.188 182.098L220.171 185.206C220.171 185.206 229.099 154.091 231.314 146.551L242.788 142.385Z" fill="#21242C" stroke="#21242C" stroke-miterlimit="10" stroke-linecap="round" stroke-linejoin="round" />
        <path d="M168.024 152.701L167.165 152.205L159.163 171.218L160.022 171.714L168.024 152.701Z" stroke="#21242C" stroke-miterlimit="10" stroke-linecap="round" stroke-linejoin="round" />
        <path fill-rule="evenodd" clip-rule="evenodd" d="M227.577 152.041H167.297V197.11H227.577V152.041Z" fill="#FDFDFD" stroke="#21242C" stroke-miterlimit="10" stroke-linecap="round" stroke-linejoin="round" />
        <path opacity="0.15" fill-rule="evenodd" clip-rule="evenodd" d="M227.577 152.041H167.297L170.24 172.674L225.031 173.071L227.577 152.041Z" fill="#3772FF" />
        <path d="M227.578 152.041H167.297L170.24 172.674L225.032 173.071L227.578 152.041Z" stroke="#21242C" stroke-miterlimit="10" stroke-linecap="round" stroke-linejoin="round" />
        <path fill-rule="evenodd" clip-rule="evenodd" d="M236.406 150.222C241.135 145.956 248.939 150.784 247.848 162.49C246.756 174.195 241.631 184.049 236.175 188.712C231.48 192.713 222.552 198.665 211.937 199.987C211.21 200.086 207.672 202.6 203.439 202.401C200.694 202.269 196.33 200.186 195.9 197.441C195.701 196.218 202.381 197.11 206.812 193.738C211.408 190.266 222.618 178.626 224.205 175.088C225.428 172.377 228.272 165.4 229.925 160.274C231.248 156.24 233.993 152.371 236.406 150.222Z" fill="#FDFDFD" stroke="#21242C" stroke-miterlimit="10" stroke-linecap="round" stroke-linejoin="round" />
        <path fill-rule="evenodd" clip-rule="evenodd" d="M235.381 149.329C240.771 145.923 248.344 146.386 249.799 158.026C250.658 164.937 247.219 172.343 247.219 172.343L228.14 162.82C228.173 162.82 230.917 152.14 235.381 149.329Z" fill="#21242C" stroke="#21242C" stroke-miterlimit="10" stroke-linecap="round" stroke-linejoin="round" />
        <path d="M123.781 208.651H279.79" stroke="#21242C" stroke-miterlimit="10" stroke-linecap="round" stroke-linejoin="round" />
        <path fill-rule="evenodd" clip-rule="evenodd" d="M132.048 185.769C133.007 184.644 135.322 185.107 137.273 186.728C139.223 188.381 140.017 190.629 139.058 191.721C138.099 192.845 135.785 192.382 133.834 190.762C131.883 189.141 131.089 186.893 132.048 185.769Z" fill="#FF6939" />
        <path fill-rule="evenodd" clip-rule="evenodd" d="M137.273 186.761C135.355 185.107 133.007 184.677 132.048 185.802C131.089 186.926 131.916 189.141 133.834 190.795C135.785 192.448 138.099 192.878 139.058 191.754C139.984 190.629 139.19 188.414 137.273 186.761ZM138.529 191.324C138.265 191.621 137.868 191.721 137.372 191.688C136.413 191.654 135.289 191.125 134.264 190.266C133.238 189.406 132.544 188.348 132.379 187.422C132.28 186.959 132.313 186.529 132.577 186.232C132.842 185.934 133.238 185.835 133.734 185.868C134.66 185.901 135.818 186.43 136.843 187.29C137.868 188.149 138.562 189.208 138.728 190.133C138.827 190.596 138.794 191.026 138.529 191.324Z" fill="#21242C" />
        <path fill-rule="evenodd" clip-rule="evenodd" d="M147.06 181.371C148.482 181.602 149.342 183.487 148.978 185.57C148.614 187.653 147.192 189.174 145.804 188.943C144.382 188.711 143.522 186.827 143.886 184.743C144.216 182.66 145.638 181.139 147.06 181.371Z" fill="#FF6939" />
        <path fill-rule="evenodd" clip-rule="evenodd" d="M147.06 181.371C145.638 181.139 144.217 182.627 143.886 184.743C143.522 186.827 144.415 188.711 145.804 188.943C147.226 189.174 148.647 187.686 148.978 185.57C149.342 183.487 148.482 181.602 147.06 181.371ZM148.317 185.471C148.151 186.529 147.655 187.422 147.027 187.918C146.697 188.182 146.3 188.315 145.936 188.249C145.539 188.182 145.242 187.918 145.01 187.554C144.58 186.893 144.382 185.868 144.58 184.81C144.746 183.752 145.242 182.859 145.87 182.363C146.201 182.098 146.597 181.966 146.961 182.032C147.358 182.098 147.655 182.363 147.887 182.726C148.317 183.421 148.482 184.413 148.317 185.471Z" fill="#21242C" />
        <path fill-rule="evenodd" clip-rule="evenodd" d="M139.885 180.081C142.927 179.618 146.002 183.09 146.763 187.885C147.523 192.68 145.638 196.945 142.596 197.408C139.554 197.871 136.479 194.366 135.719 189.604C134.958 184.843 136.843 180.577 139.885 180.081Z" fill="#FF6939" />
        <path fill-rule="evenodd" clip-rule="evenodd" d="M146.763 187.918C146.002 183.123 142.927 179.618 139.885 180.114C136.843 180.577 134.991 184.876 135.719 189.637C136.479 194.432 139.554 197.937 142.596 197.441C145.639 196.978 147.49 192.68 146.763 187.918ZM145.01 194.895C144.382 195.92 143.522 196.614 142.497 196.78C141.472 196.945 140.447 196.548 139.521 195.755C138 194.465 136.81 192.217 136.413 189.538C135.983 186.86 136.446 184.314 137.471 182.66C138.099 181.635 138.959 180.941 139.984 180.776C141.009 180.61 142.034 181.007 142.96 181.801C144.481 183.09 145.672 185.339 146.068 188.017C146.498 190.696 146.068 193.209 145.01 194.895Z" fill="#21242C" />
        <path fill-rule="evenodd" clip-rule="evenodd" d="M149.21 193.969H133.734L135.685 208.717H147.391L149.21 193.969Z" fill="#FDFDFD" />
        <path fill-rule="evenodd" clip-rule="evenodd" d="M133.734 193.969L135.718 208.717H147.424L149.243 193.969H133.734ZM146.796 208.055H136.314L134.528 194.663H148.482L146.796 208.055Z" fill="#21242C" />
    </g>
    <defs>
        <linearGradient id="paint0_linear_185_1561" x1="195.024" y1="98.8032" x2="195.024" y2="131.175" gradientUnits="userSpaceOnUse">
            <stop stop-color="#3772FF" />
            <stop offset="1" stop-color="#3772FF" stop-opacity="0" />
        </linearGradient>
        <linearGradient id="paint1_linear_185_1561" x1="195.206" y1="32.1119" x2="195.206" y2="91.3302" gradientUnits="userSpaceOnUse">
            <stop stop-color="#3772FF" />
            <stop offset="1" stop-color="#3772FF" stop-opacity="0" />
        </linearGradient>
        <linearGradient id="paint2_linear_185_1561" x1="59" y1="115" x2="59" y2="148" gradientUnits="userSpaceOnUse">
            <stop stop-color="#3772FF" />
            <stop offset="1" stop-color="#3772FF" stop-opacity="0" />
        </linearGradient>
        <linearGradient id="paint3_linear_185_1561" x1="346" y1="146" x2="346" y2="167" gradientUnits="userSpaceOnUse">
            <stop stop-color="#3772FF" />
            <stop offset="1" stop-color="#3772FF" stop-opacity="0" />
        </linearGradient>
        <clipPath id="clip0_185_1561">
            <rect width="400" height="248" fill="white" />
        </clipPath>
    </defs>
</svg>
    