<svg width="19" height="15" viewBox="0 0 19 15" fill="none" xmlns="http://www.w3.org/2000/svg">
    <path d="M12.5 3C12.5 3.79565 12.1839 4.55871 11.6213 5.12132C11.0587 5.68393 10.2956 6 9.5 6C8.70435 6 7.94129 5.68393 7.37868 5.12132C6.81607 4.55871 6.5 3.79565 6.5 3C6.5 2.20435 6.81607 1.44129 7.37868 0.87868C7.94129 0.316071 8.70435 0 9.5 0C10.2956 0 11.0587 0.316071 11.6213 0.87868C12.1839 1.44129 12.5 2.20435 12.5 3ZM17.5 5C17.5 5.53043 17.2893 6.03914 16.9142 6.41421C16.5391 6.78929 16.0304 7 15.5 7C14.9696 7 14.4609 6.78929 14.0858 6.41421C13.7107 6.03914 13.5 5.53043 13.5 5C13.5 4.46957 13.7107 3.96086 14.0858 3.58579C14.4609 3.21071 14.9696 3 15.5 3C16.0304 3 16.5391 3.21071 16.9142 3.58579C17.2893 3.96086 17.5 4.46957 17.5 5ZM13.5 12C13.5 10.9391 13.0786 9.92172 12.3284 9.17157C11.5783 8.42143 10.5609 8 9.5 8C8.43913 8 7.42172 8.42143 6.67157 9.17157C5.92143 9.92172 5.5 10.9391 5.5 12V15H13.5V12ZM5.5 5C5.5 5.53043 5.28929 6.03914 4.91421 6.41421C4.53914 6.78929 4.03043 7 3.5 7C2.96957 7 2.46086 6.78929 2.08579 6.41421C1.71071 6.03914 1.5 5.53043 1.5 5C1.5 4.46957 1.71071 3.96086 2.08579 3.58579C2.46086 3.21071 2.96957 3 3.5 3C4.03043 3 4.53914 3.21071 4.91421 3.58579C5.28929 3.96086 5.5 4.46957 5.5 5ZM15.5 15V12C15.5014 10.9833 15.2433 9.98303 14.75 9.094C15.1933 8.98054 15.6568 8.96984 16.1049 9.06272C16.553 9.15559 16.974 9.34959 17.3357 9.62991C17.6974 9.91023 17.9903 10.2695 18.1921 10.6802C18.3939 11.091 18.4992 11.5424 18.5 12V15H15.5ZM4.25 9.094C3.75675 9.98305 3.4986 10.9833 3.5 12V15H0.5V12C0.499808 11.542 0.604463 11.0901 0.805947 10.6789C1.00743 10.2676 1.30039 9.90793 1.66238 9.62742C2.02437 9.3469 2.44578 9.15298 2.89431 9.06052C3.34284 8.96806 3.80658 8.97951 4.25 9.094Z" fill="#95999F" />
</svg>
    