<svg viewBox="0 0 568 448" fill="none" xmlns="http://www.w3.org/2000/svg">
    <path fill-rule="evenodd" clip-rule="evenodd" d="M227.2 160.16H321.715V38.1536H227.2V160.16Z" fill="#F2F4FB" />
    <g opacity="0.06">
        <path d="M310.355 49.7407V148.724H238.56V49.7407H310.355ZM321.715 38.3807H227.2V160.084H321.715V38.3807Z" fill="#3772FF" />
    </g>
    <path fill-rule="evenodd" clip-rule="evenodd" d="M165.477 177.73L155.859 203.404L180.018 198.33L177.367 178.79L165.477 177.73Z" fill="#FDFDFD" stroke="#21242C" stroke-width="1.7999" stroke-miterlimit="10" stroke-linecap="round" stroke-linejoin="round" />
    <path d="M186.153 167.203L191.302 173.64L187.516 176.367L186.153 167.203Z" stroke="#21242C" stroke-width="1.7999" stroke-miterlimit="10" stroke-linecap="round" stroke-linejoin="round" />
    <path fill-rule="evenodd" clip-rule="evenodd" d="M169.264 156.222C174.565 153.571 182.063 157.737 186.077 165.613C190.015 173.489 188.955 182.047 183.729 184.698C178.428 187.348 170.93 183.183 166.916 175.307C162.902 167.43 163.963 158.873 169.264 156.222Z" fill="#FDFDFD" stroke="#21242C" stroke-width="1.7999" stroke-miterlimit="10" stroke-linecap="round" stroke-linejoin="round" />
    <path fill-rule="evenodd" clip-rule="evenodd" d="M188.728 145.165C193.044 151.072 192.287 158.872 187.137 162.659C181.987 166.446 174.262 164.704 170.021 158.797C165.705 152.89 166.462 145.089 171.612 141.302C176.837 137.591 184.486 139.333 188.728 145.165Z" fill="#FF6939" />
    <path fill-rule="evenodd" clip-rule="evenodd" d="M184.259 169.096C184.789 170.232 184.865 171.293 184.335 171.52C183.805 171.747 182.972 171.066 182.442 170.005C181.911 168.869 181.836 167.809 182.366 167.582C182.82 167.355 183.729 168.036 184.259 169.096Z" fill="#21242C" />
    <path fill-rule="evenodd" clip-rule="evenodd" d="M156.389 158.948C160.176 155.616 165.402 155.313 168.052 158.342C170.703 161.372 169.87 166.522 166.083 169.854C162.297 173.186 157.071 173.489 154.42 170.46C151.694 167.43 152.603 162.28 156.389 158.948Z" fill="#FF6939" />
    <path fill-rule="evenodd" clip-rule="evenodd" d="M165.78 152.662C170.097 149.633 176.004 150.542 179.034 154.783C182.063 159.024 180.927 164.931 176.61 167.961C172.293 170.99 166.386 170.081 163.357 165.84C160.403 161.599 161.463 155.692 165.78 152.662Z" fill="#FF6939" />
    <path fill-rule="evenodd" clip-rule="evenodd" d="M162.524 151.905C164.569 150.163 168.507 151.526 171.309 154.859C174.111 158.191 174.793 162.28 172.748 164.022C170.703 165.764 166.765 164.401 163.963 161.069C161.161 157.736 160.479 153.571 162.524 151.905Z" fill="#FF6939" />
    <path fill-rule="evenodd" clip-rule="evenodd" d="M167.068 162.129C170.93 162.659 173.581 166.9 172.975 171.596C172.369 176.291 168.658 179.699 164.796 179.169C160.933 178.639 158.283 174.398 158.889 169.702C159.494 165.007 163.205 161.599 167.068 162.129Z" fill="#FF6939" />
    <path fill-rule="evenodd" clip-rule="evenodd" d="M166.462 170.687C168.81 169.551 171.839 170.914 173.278 173.716C174.717 176.594 174.035 179.851 171.687 180.987C169.34 182.123 166.31 180.835 164.871 177.957C163.433 175.079 164.114 171.823 166.462 170.687Z" fill="#FDFDFD" stroke="#21242C" stroke-width="1.7999" stroke-miterlimit="10" stroke-linecap="round" stroke-linejoin="round" />
    <path fill-rule="evenodd" clip-rule="evenodd" d="M172.672 303.675C172.672 303.675 220.308 324.577 258.251 313.141C303.085 299.585 307.099 290.8 331.712 295.117C385.104 304.432 404.416 312.157 404.416 312.157L432.967 265.278C432.967 265.278 398.66 239.831 324.669 221.883C284.227 212.189 206.676 285.499 206.676 285.499L172.672 303.675Z" fill="#FF6939" stroke="#21242C" stroke-width="1.7999" stroke-miterlimit="10" stroke-linecap="round" stroke-linejoin="round" />
    <path fill-rule="evenodd" clip-rule="evenodd" d="M380.106 284.968L418.805 319.124L463.412 264.293L438.647 265.959L399.645 248.314L380.106 284.968Z" fill="#FDFDFD" stroke="#21242C" stroke-width="1.7999" stroke-miterlimit="10" stroke-linecap="round" stroke-linejoin="round" />
    <path fill-rule="evenodd" clip-rule="evenodd" d="M139.198 258.916C139.198 258.916 130.337 294.814 157.298 338.36C165.856 352.22 176.459 347.751 181.533 348.13C186.607 348.509 173.884 259.371 173.884 259.371C173.884 259.371 139.198 259.825 139.198 258.916Z" fill="#FDFDFD" stroke="#21242C" stroke-width="1.7999" stroke-miterlimit="10" stroke-linecap="round" stroke-linejoin="round" />
    <path fill-rule="evenodd" clip-rule="evenodd" d="M189.561 222.034C194.938 207.418 166.613 184.092 151.391 208.478C137.91 229.91 136.699 263.763 136.699 263.763C136.699 263.763 165.099 263.157 171.763 256.341C180.927 247.026 183.426 238.695 189.561 222.034Z" fill="#21242C" stroke="#21242C" stroke-width="1.7999" stroke-miterlimit="10" stroke-linecap="round" stroke-linejoin="round" />
    <path fill-rule="evenodd" clip-rule="evenodd" d="M172.672 296.404C172.672 296.404 220.308 317.307 258.251 305.871C303.085 292.315 307.174 270.579 330.879 278.38C396.994 300.267 399.569 304.811 399.569 304.811L428.121 257.932C428.121 257.932 398.585 232.561 324.593 214.688C284.303 204.918 206.752 278.228 206.752 278.228L172.672 296.404Z" fill="#FF6939" stroke="#21242C" stroke-width="1.7999" stroke-miterlimit="10" stroke-linecap="round" stroke-linejoin="round" />
    <path fill-rule="evenodd" clip-rule="evenodd" d="M303.842 140.772L292.104 147.588L287.408 215.218L299.147 208.326L303.842 140.772Z" fill="#3772FF" stroke="#21242C" stroke-width="1.7999" stroke-miterlimit="10" stroke-linecap="round" stroke-linejoin="round" />
    <path fill-rule="evenodd" clip-rule="evenodd" d="M301.722 212.34L299.601 208.705L241.059 242.785L243.18 246.496L301.722 212.34Z" fill="#FDFDFD" stroke="#21242C" stroke-width="1.7999" stroke-miterlimit="10" stroke-linecap="round" stroke-linejoin="round" />
    <path fill-rule="evenodd" clip-rule="evenodd" d="M154.269 199.238C154.269 199.238 133.215 249.904 171.006 299.585L239.772 259.143C239.772 259.143 196.982 209.69 183.881 195.679L154.269 199.238Z" fill="#21242C" stroke="#21242C" stroke-width="1.7999" stroke-miterlimit="10" stroke-linecap="round" stroke-linejoin="round" />
    <path fill-rule="evenodd" clip-rule="evenodd" d="M179.261 211.962C164.493 207.039 153.89 223.7 165.174 250.055C177.595 279.137 192.135 292.996 208.418 299.509C217.052 302.993 231.895 298.07 245.527 271.109C252.343 257.629 252.192 247.329 257.266 237.332C258.326 235.212 268.853 232.94 271.731 221.58C273.473 214.612 262.643 218.172 250.526 221.58C227.276 228.093 224.852 261.718 217.809 255.281C212.432 250.358 210.009 238.998 201.299 229.153C194.332 221.504 186.758 214.461 179.261 211.962Z" fill="#FDFDFD" stroke="#21242C" stroke-width="1.7999" stroke-miterlimit="10" stroke-linecap="round" stroke-linejoin="round" />
    <path fill-rule="evenodd" clip-rule="evenodd" d="M180.927 208.932C165.78 205.373 148.589 212.567 154.647 240.665C158.207 257.326 172.142 271.639 172.142 271.639L208.494 234.227C208.418 234.303 193.499 211.886 180.927 208.932Z" fill="#21242C" stroke="#21242C" stroke-width="1.7999" stroke-miterlimit="10" stroke-linecap="round" stroke-linejoin="round" />
    <path fill-rule="evenodd" clip-rule="evenodd" d="M151.164 324.35C152.83 321.396 151.845 317.685 148.892 316.019C145.938 314.353 142.227 315.338 140.561 318.291L94.3637 398.341C92.6976 401.295 93.6821 405.006 96.6357 406.672C99.5893 408.338 103.3 407.354 104.966 404.4L151.164 324.35Z" fill="#FDFDFD" stroke="#21242C" stroke-width="1.7999" stroke-miterlimit="10" stroke-linecap="round" stroke-linejoin="round" />
    <path fill-rule="evenodd" clip-rule="evenodd" d="M404.189 317.004C405.855 314.05 404.87 310.339 401.917 308.673C398.963 307.007 395.252 307.991 393.586 310.945L343.148 398.341C341.482 401.295 342.466 405.006 345.42 406.672C348.373 408.338 352.084 407.354 353.75 404.4L404.189 317.004Z" fill="#FDFDFD" stroke="#21242C" stroke-width="1.7999" stroke-miterlimit="10" stroke-linecap="round" stroke-linejoin="round" />
    <path fill-rule="evenodd" clip-rule="evenodd" d="M252.495 326.622C250.829 323.668 251.813 319.957 254.767 318.291C257.721 316.625 261.431 317.61 263.098 320.563L308.007 398.341C309.674 401.295 308.689 405.006 305.735 406.672C302.782 408.338 299.071 407.354 297.405 404.4L252.495 326.622Z" fill="#FDFDFD" stroke="#21242C" stroke-width="1.7999" stroke-miterlimit="10" stroke-linecap="round" stroke-linejoin="round" />
    <path fill-rule="evenodd" clip-rule="evenodd" d="M409.869 317.988C408.203 315.035 409.187 311.324 412.141 309.658C415.094 307.991 418.805 308.976 420.471 311.93L470.38 398.341C472.046 401.295 471.061 405.006 468.108 406.672C465.154 408.338 461.443 407.354 459.777 404.4L409.869 317.988Z" fill="#FDFDFD" stroke="#21242C" stroke-width="1.7999" stroke-miterlimit="10" stroke-linecap="round" stroke-linejoin="round" />
    <path d="M101.322 252.868L101.322 252.868C101.507 237.062 112.575 225.998 123.83 223.24C129.446 221.863 135.034 222.57 139.342 225.694C143.639 228.81 146.813 234.441 147.388 243.222L147.388 243.224C148.618 261.484 158.532 281.473 178.682 294.677C198.84 307.885 229.146 314.247 271.083 305.464L271.084 305.464C295.871 300.236 309.424 307.706 313.26 318.027C317.125 328.427 311.452 342.484 296.203 351.134L296.202 351.135C283.949 358.12 263 363.741 238.318 363.891C213.654 364.042 185.333 358.73 158.337 343.933C122.984 324.527 100.872 291.41 101.322 252.868Z" fill="#FDFDFD" stroke="#21242C" stroke-width="1.8" />
    <path d="M444.176 305.786C458.6 305.786 470.389 317.502 470.389 331.999C470.389 346.497 458.674 358.211 444.176 358.211H365.338C350.914 358.211 339.125 346.495 339.125 331.999C339.125 317.575 350.841 305.786 365.338 305.786H444.176Z" fill="#FDFDFD" stroke="#21242C" stroke-width="1.8" />
    <path opacity="0.1" fill-rule="evenodd" clip-rule="evenodd" d="M138.289 115.78H211.523V54.8149H138.289V115.78Z" fill="#3772FF" />
    <path opacity="0.04" d="M403 98H333V175H403V98Z" fill="#3772FF" />
    <g opacity="0.06">
        <path d="M392.223 108.737V164.098H343.754V108.737H392.223ZM403.129 97.8314H332.848V175.004H403.129V97.8314Z" fill="#3772FF" />
    </g>
    <g opacity="0.06">
        <path d="M200.163 66.1749V104.42H149.649V66.1749H200.163ZM211.523 54.8149H138.289V115.78H211.523V54.8149Z" fill="#3772FF" />
    </g>
    <path opacity="0.04" fill-rule="evenodd" clip-rule="evenodd" d="M333.227 87.0015H421.38V38.6837H333.227V87.0015Z" fill="#3772FF" />
    <path opacity="0.1" d="M410.02 50.0437V75.6415H344.587V50.0437H410.02ZM421.38 38.6837H333.227V87.0015H421.456V38.6837H421.38Z" fill="#3772FF" />
</svg>
    