<?xml version="1.0" standalone="no"?>
<!DOCTYPE svg PUBLIC "-//W3C//DTD SVG 20010904//EN"
 "http://www.w3.org/TR/2001/REC-SVG-20010904/DTD/svg10.dtd">
<svg version="1.0" xmlns="http://www.w3.org/2000/svg"
 width="512.000000pt" height="512.000000pt" viewBox="0 0 512.000000 512.000000"
 preserveAspectRatio="xMidYMid meet">
<metadata>
Created by potrace 1.14, written by Peter Selinger 2001-2017
</metadata>
<g transform="translate(0.000000,512.000000) scale(0.100000,-0.100000)"
fill="#000000" stroke="none">
<path d="M2485 4564 c-55 -14 -163 -49 -175 -55 -8 -5 -98 -43 -200 -85 -102
-41 -204 -84 -227 -95 -24 -10 -45 -19 -48 -19 -3 0 -24 -9 -48 -19 -23 -11
-109 -47 -192 -81 -82 -34 -159 -65 -170 -70 -11 -5 -49 -21 -85 -36 -90 -38
-157 -82 -209 -137 -66 -69 -77 -91 -208 -412 -25 -60 -56 -134 -69 -163 -13
-29 -24 -55 -24 -58 0 -4 -67 -167 -90 -219 -5 -11 -25 -60 -45 -110 -20 -49
-43 -101 -50 -115 -7 -14 -14 -28 -14 -33 0 -4 -8 -24 -17 -45 -58 -138 -74
-253 -49 -358 8 -33 31 -102 53 -154 22 -52 72 -174 112 -270 71 -173 86 -207
115 -274 8 -19 15 -37 15 -41 0 -3 9 -26 20 -51 11 -24 25 -56 31 -71 20 -54
111 -269 132 -313 62 -131 159 -211 352 -287 86 -34 357 -147 390 -162 22 -10
191 -81 375 -156 63 -26 138 -58 167 -71 111 -50 246 -65 346 -39 49 13 186
65 315 121 17 8 49 21 70 30 20 8 46 19 57 24 11 5 169 70 350 145 443 183
477 202 560 311 45 58 36 38 270 603 107 261 202 488 209 505 57 127 75 257
50 364 -15 65 -436 1089 -490 1193 -68 130 -161 196 -424 303 -182 73 -266
108 -295 121 -16 8 -54 24 -84 35 -30 12 -74 30 -97 41 -24 10 -45 19 -48 19
-3 0 -29 11 -58 24 -100 46 -323 134 -368 146 -41 11 -181 21 -205 14z"/>
</g>
</svg>
